<svg width="360" height="44" viewBox="0 0 360 44" fill="none" xmlns="http://www.w3.org/2000/svg">
<path d="M26.0781 27.7012H26.2148C26.8438 27.7012 27.3678 27.6191 27.7871 27.4551C28.2109 27.2865 28.5482 27.054 28.7988 26.7578C29.0495 26.4616 29.2295 26.113 29.3389 25.7119C29.4482 25.3109 29.5029 24.8757 29.5029 24.4062V22.6904C29.5029 22.2848 29.4596 21.9294 29.373 21.624C29.291 21.3141 29.1725 21.0566 29.0176 20.8516C28.8672 20.6419 28.6917 20.4847 28.4912 20.3799C28.2952 20.2751 28.0833 20.2227 27.8555 20.2227C27.6048 20.2227 27.3792 20.2796 27.1787 20.3936C26.9827 20.5029 26.8164 20.6556 26.6797 20.8516C26.5475 21.043 26.445 21.2686 26.3721 21.5283C26.3037 21.7835 26.2695 22.057 26.2695 22.3486C26.2695 22.6221 26.3014 22.8864 26.3652 23.1416C26.4336 23.3923 26.5339 23.6156 26.666 23.8115C26.7982 24.0075 26.9645 24.1624 27.165 24.2764C27.3656 24.3903 27.6003 24.4473 27.8691 24.4473C28.1243 24.4473 28.359 24.3994 28.5732 24.3037C28.7874 24.2035 28.9743 24.069 29.1338 23.9004C29.2933 23.7318 29.4186 23.5426 29.5098 23.333C29.6009 23.1234 29.651 22.9092 29.6602 22.6904L30.2891 22.8818C30.2891 23.2282 30.2161 23.57 30.0703 23.9072C29.929 24.2399 29.7308 24.5452 29.4756 24.8232C29.2249 25.0967 28.931 25.3154 28.5938 25.4795C28.2611 25.6436 27.8988 25.7256 27.5068 25.7256C27.0329 25.7256 26.6136 25.6367 26.249 25.459C25.889 25.2767 25.5882 25.0306 25.3467 24.7207C25.1097 24.4108 24.932 24.0553 24.8135 23.6543C24.695 23.2533 24.6357 22.8317 24.6357 22.3896C24.6357 21.9111 24.7087 21.4622 24.8545 21.043C25.0003 20.6237 25.2122 20.2546 25.4902 19.9355C25.7682 19.612 26.1055 19.3613 26.502 19.1836C26.903 19.0013 27.3564 18.9102 27.8623 18.9102C28.4001 18.9102 28.8717 19.015 29.2773 19.2246C29.6829 19.4342 30.0247 19.7236 30.3027 20.0928C30.5807 20.4619 30.7904 20.8903 30.9316 21.3779C31.0729 21.8656 31.1436 22.3896 31.1436 22.9502V23.5312C31.1436 24.1191 31.0911 24.6865 30.9863 25.2334C30.8815 25.7757 30.7106 26.2793 30.4736 26.7441C30.2412 27.2044 29.9336 27.61 29.5508 27.9609C29.1725 28.3073 28.7077 28.5785 28.1562 28.7744C27.6094 28.9658 26.9668 29.0615 26.2285 29.0615H26.0781V27.7012ZM33.1019 28.1797C33.1019 27.9245 33.1885 27.7103 33.3617 27.5371C33.5349 27.3594 33.7696 27.2705 34.0658 27.2705C34.3666 27.2705 34.6013 27.3594 34.7699 27.5371C34.9431 27.7103 35.0296 27.9245 35.0296 28.1797C35.0296 28.4349 34.9431 28.6491 34.7699 28.8223C34.6013 28.9954 34.3666 29.082 34.0658 29.082C33.7696 29.082 33.5349 28.9954 33.3617 28.8223C33.1885 28.6491 33.1019 28.4349 33.1019 28.1797ZM33.1088 22.3555C33.1088 22.1003 33.1953 21.8861 33.3685 21.7129C33.5417 21.5352 33.7764 21.4463 34.0726 21.4463C34.3734 21.4463 34.6081 21.5352 34.7767 21.7129C34.9499 21.8861 35.0365 22.1003 35.0365 22.3555C35.0365 22.6107 34.9499 22.8249 34.7767 22.998C34.6081 23.1712 34.3734 23.2578 34.0726 23.2578C33.7764 23.2578 33.5417 23.1712 33.3685 22.998C33.1953 22.8249 33.1088 22.6107 33.1088 22.3555ZM38.7517 23.2783H39.7361C40.1189 23.2783 40.4356 23.2122 40.6862 23.0801C40.9415 22.9479 41.1306 22.7656 41.2536 22.5332C41.3767 22.3008 41.4382 22.0342 41.4382 21.7334C41.4382 21.4189 41.3812 21.1501 41.2673 20.9268C41.1579 20.6989 40.9893 20.5234 40.7614 20.4004C40.5381 20.2773 40.2533 20.2158 39.907 20.2158C39.6153 20.2158 39.351 20.2751 39.114 20.3936C38.8816 20.5075 38.697 20.6715 38.5603 20.8857C38.4236 21.0954 38.3552 21.346 38.3552 21.6377H36.7009C36.7009 21.109 36.8399 20.6396 37.1179 20.2295C37.3959 19.8193 37.7741 19.498 38.2527 19.2656C38.7357 19.0286 39.278 18.9102 39.8796 18.9102C40.5222 18.9102 41.0827 19.0173 41.5612 19.2314C42.0443 19.4411 42.4203 19.7555 42.6892 20.1748C42.9581 20.5941 43.0925 21.1136 43.0925 21.7334C43.0925 22.016 43.0264 22.3031 42.8943 22.5947C42.7621 22.8864 42.5661 23.153 42.3064 23.3945C42.0466 23.6315 41.723 23.8252 41.3357 23.9756C40.9483 24.1214 40.4994 24.1943 39.989 24.1943H38.7517V23.2783ZM38.7517 24.5635V23.6611H39.989C40.5723 23.6611 41.0691 23.7295 41.4792 23.8662C41.8939 24.0029 42.2312 24.1921 42.4909 24.4336C42.7507 24.6706 42.9398 24.9417 43.0583 25.2471C43.1814 25.5524 43.2429 25.876 43.2429 26.2178C43.2429 26.6826 43.1586 27.0973 42.99 27.4619C42.8259 27.8219 42.5912 28.1273 42.2859 28.3779C41.9805 28.6286 41.6228 28.8177 41.2126 28.9453C40.807 29.0729 40.365 29.1367 39.8864 29.1367C39.4581 29.1367 39.0479 29.0775 38.656 28.959C38.264 28.8405 37.9131 28.665 37.6032 28.4326C37.2933 28.1956 37.0473 27.9017 36.865 27.5508C36.6872 27.1953 36.5984 26.7852 36.5984 26.3203H38.2458C38.2458 26.6165 38.3142 26.8786 38.4509 27.1064C38.5922 27.3298 38.7881 27.5052 39.0388 27.6328C39.294 27.7604 39.5857 27.8242 39.9138 27.8242C40.2601 27.8242 40.5586 27.7627 40.8093 27.6396C41.0599 27.5166 41.2514 27.3343 41.3835 27.0928C41.5202 26.8512 41.5886 26.5596 41.5886 26.2178C41.5886 25.8304 41.5134 25.516 41.363 25.2744C41.2126 25.0329 40.9984 24.8551 40.7204 24.7412C40.4424 24.6227 40.1143 24.5635 39.7361 24.5635H38.7517ZM51.5382 23.1895V24.8164C51.5382 25.5957 51.4607 26.2611 51.3057 26.8125C51.1554 27.3594 50.9366 27.8037 50.6495 28.1455C50.3624 28.4873 50.0183 28.738 49.6173 28.8975C49.2208 29.057 48.7764 29.1367 48.2843 29.1367C47.8923 29.1367 47.5277 29.0866 47.1905 28.9863C46.8578 28.8861 46.557 28.7288 46.2882 28.5146C46.0193 28.3005 45.7891 28.0247 45.5977 27.6875C45.4109 27.3457 45.2651 26.9378 45.1602 26.4639C45.06 25.9899 45.0098 25.4408 45.0098 24.8164V23.1895C45.0098 22.4056 45.0873 21.7448 45.2423 21.207C45.3972 20.6647 45.6182 20.2249 45.9054 19.8877C46.1925 19.5459 46.5343 19.2975 46.9307 19.1426C47.3318 18.9876 47.7784 18.9102 48.2706 18.9102C48.6671 18.9102 49.0317 18.9603 49.3643 19.0605C49.7016 19.1562 50.0024 19.3089 50.2667 19.5186C50.5356 19.7282 50.7634 20.0016 50.9503 20.3389C51.1417 20.6715 51.2875 21.0749 51.3878 21.5488C51.488 22.0182 51.5382 22.5651 51.5382 23.1895ZM49.8907 25.0488V22.9434C49.8907 22.5469 49.8679 22.1982 49.8223 21.8975C49.7768 21.5921 49.7084 21.3346 49.6173 21.125C49.5307 20.9108 49.4213 20.7376 49.2891 20.6055C49.157 20.4688 49.0066 20.3708 48.838 20.3115C48.6693 20.2477 48.4802 20.2158 48.2706 20.2158C48.0154 20.2158 47.7875 20.266 47.587 20.3662C47.3865 20.4619 47.2179 20.6169 47.0811 20.8311C46.9444 21.0452 46.8396 21.3278 46.7667 21.6787C46.6983 22.0251 46.6641 22.4466 46.6641 22.9434V25.0488C46.6641 25.4499 46.6869 25.8031 46.7325 26.1084C46.7781 26.4137 46.8464 26.6758 46.9376 26.8945C47.0287 27.1087 47.1381 27.2865 47.2657 27.4277C47.3979 27.5645 47.5483 27.6647 47.7169 27.7285C47.8901 27.7923 48.0792 27.8242 48.2843 27.8242C48.544 27.8242 48.7742 27.7741 48.9747 27.6738C49.1752 27.5736 49.3438 27.4141 49.4805 27.1953C49.6173 26.972 49.7198 26.6826 49.7882 26.3271C49.8565 25.9717 49.8907 25.5456 49.8907 25.0488Z" fill="#1C1B1F"/>
<path d="M298.5 18.4167C295.1 18.4167 292.125 19.9042 290 22.2417L298.5 32.5833L307 22.2417C304.875 19.9042 301.9 18.4167 298.5 18.4167Z" fill="#616163"/>
<path d="M321.583 18.4167L307.417 32.5833H321.583V18.4167Z" fill="#616163"/>
<path opacity="0.3" d="M333.5 18H330.5V19.5H329C328.448 19.5 328 20.0037 328 20.625V31.875C328 32.4963 328.448 33 329 33H335C335.552 33 336 32.4963 336 31.875V20.625C336 20.0037 335.552 19.5 335 19.5H333.5V18Z" fill="#1C1B1F"/>
<path d="M328 26C328 26.5833 328 31.3667 328 31.95C328 32.5299 328.448 33 329 33H335C335.552 33 336 32.5299 336 31.95C336 31.3667 336 26.5833 336 26H328Z" fill="#616163"/>
</svg>
