<svg width="108" height="30" viewBox="0 0 108 30" fill="none" xmlns="http://www.w3.org/2000/svg">
<path d="M20.4166 18.7917C21.1458 18.7917 21.7656 18.5366 22.2763 18.0263C22.7865 17.5157 23.0416 16.8958 23.0416 16.1667C23.0416 15.4375 22.7865 14.8176 22.2763 14.307C21.7656 13.7968 21.1458 13.5417 20.4166 13.5417C19.6874 13.5417 19.0675 13.7968 18.5569 14.307C18.0467 14.8176 17.7916 15.4375 17.7916 16.1667C17.7916 16.8958 18.0467 17.5157 18.5569 18.0263C19.0675 18.5366 19.6874 18.7917 20.4166 18.7917ZM14.5833 20.8333V11.5H17.5874L18.6666 10.3333H22.1666V12.6667H15.7499V19.6667H25.0833V14.4167H26.2499V20.8333H14.5833ZM25.0833 12.6667V11.5H23.9166V10.3333H25.0833V9.16667H26.2499V10.3333H27.4166V11.5H26.2499V12.6667H25.0833ZM15.7499 19.6667V12.6667V19.6667Z" fill="#3871E0"/>
<path d="M38.5547 19.5H37.2734L40.1523 11.5H41.5469L44.4258 19.5H43.1445L40.8828 12.9531H40.8203L38.5547 19.5ZM38.7695 16.3672H42.9258V17.3828H38.7695V16.3672ZM47.7467 19.6172C47.2623 19.6172 46.8301 19.4935 46.4498 19.2461C46.0722 18.9961 45.7754 18.6406 45.5592 18.1797C45.3457 17.7161 45.2389 17.1602 45.2389 16.5117C45.2389 15.8633 45.347 15.3086 45.5631 14.8477C45.7819 14.3867 46.0814 14.0339 46.4616 13.7891C46.8418 13.5443 47.2728 13.4219 47.7545 13.4219C48.1269 13.4219 48.4264 13.4844 48.653 13.6094C48.8821 13.7318 49.0592 13.875 49.1842 14.0391C49.3118 14.2031 49.4108 14.3477 49.4811 14.4727H49.5514V11.5H50.7194V19.5H49.5788V18.5664H49.4811C49.4108 18.694 49.3092 18.8398 49.1764 19.0039C49.0462 19.168 48.8665 19.3112 48.6373 19.4336C48.4082 19.556 48.1113 19.6172 47.7467 19.6172ZM48.0045 18.6211C48.3405 18.6211 48.6243 18.5326 48.8561 18.3555C49.0905 18.1758 49.2676 17.9271 49.3873 17.6094C49.5097 17.2917 49.5709 16.9219 49.5709 16.5C49.5709 16.0833 49.511 15.7187 49.3913 15.4062C49.2715 15.0937 49.0957 14.8503 48.8639 14.6758C48.6321 14.5013 48.3457 14.4141 48.0045 14.4141C47.653 14.4141 47.36 14.5052 47.1256 14.6875C46.8913 14.8698 46.7142 15.1185 46.5944 15.4336C46.4772 15.7487 46.4186 16.1042 46.4186 16.5C46.4186 16.901 46.4785 17.2617 46.5983 17.582C46.7181 17.9023 46.8952 18.1562 47.1295 18.3437C47.3665 18.5286 47.6582 18.6211 48.0045 18.6211ZM54.7425 19.6172C54.2581 19.6172 53.8258 19.4935 53.4456 19.2461C53.068 18.9961 52.7711 18.6406 52.555 18.1797C52.3414 17.7161 52.2346 17.1602 52.2346 16.5117C52.2346 15.8633 52.3427 15.3086 52.5589 14.8477C52.7776 14.3867 53.0771 14.0339 53.4573 13.7891C53.8375 13.5443 54.2685 13.4219 54.7503 13.4219C55.1227 13.4219 55.4221 13.4844 55.6487 13.6094C55.8779 13.7318 56.055 13.875 56.18 14.0391C56.3076 14.2031 56.4065 14.3477 56.4768 14.4727H56.5471V11.5H57.7151V19.5H56.5745V18.5664H56.4768C56.4065 18.694 56.305 18.8398 56.1721 19.0039C56.0419 19.168 55.8623 19.3112 55.6331 19.4336C55.4039 19.556 55.107 19.6172 54.7425 19.6172ZM55.0003 18.6211C55.3362 18.6211 55.6201 18.5326 55.8518 18.3555C56.0862 18.1758 56.2633 17.9271 56.3831 17.6094C56.5055 17.2917 56.5667 16.9219 56.5667 16.5C56.5667 16.0833 56.5068 15.7187 56.387 15.4062C56.2672 15.0937 56.0914 14.8503 55.8596 14.6758C55.6279 14.5013 55.3414 14.4141 55.0003 14.4141C54.6487 14.4141 54.3557 14.5052 54.1214 14.6875C53.887 14.8698 53.7099 15.1185 53.5901 15.4336C53.4729 15.7487 53.4143 16.1042 53.4143 16.5C53.4143 16.901 53.4742 17.2617 53.594 17.582C53.7138 17.9023 53.8909 18.1562 54.1253 18.3437C54.3623 18.5286 54.6539 18.6211 55.0003 18.6211ZM62.607 19.5V11.5H65.4586C66.081 11.5 66.5966 11.6133 67.0054 11.8398C67.4143 12.0664 67.7203 12.3763 67.9234 12.7695C68.1265 13.1602 68.2281 13.6003 68.2281 14.0898C68.2281 14.582 68.1252 15.0247 67.9195 15.418C67.7164 15.8086 67.4091 16.1185 66.9976 16.3477C66.5888 16.5742 66.0744 16.6875 65.4546 16.6875H63.4937V15.6641H65.3453C65.7385 15.6641 66.0575 15.5964 66.3023 15.4609C66.5471 15.3229 66.7268 15.1354 66.8414 14.8984C66.956 14.6615 67.0132 14.3919 67.0132 14.0898C67.0132 13.7878 66.956 13.5195 66.8414 13.2852C66.7268 13.0508 66.5458 12.8672 66.2984 12.7344C66.0536 12.6016 65.7307 12.5352 65.3296 12.5352H63.814V19.5H62.607ZM70.8273 15.9375V19.5H69.6594V11.5H70.8117V14.4766H70.8859C71.0266 14.1536 71.2414 13.8971 71.5305 13.707C71.8195 13.5169 72.1971 13.4219 72.6633 13.4219C73.0747 13.4219 73.4341 13.5065 73.7414 13.6758C74.0513 13.8451 74.2909 14.0977 74.4602 14.4336C74.632 14.7669 74.718 15.1836 74.718 15.6836V19.5H73.55V15.8242C73.55 15.3841 73.4367 15.043 73.2102 14.8008C72.9836 14.556 72.6685 14.4336 72.2648 14.4336C71.9888 14.4336 71.7414 14.4922 71.5227 14.6094C71.3065 14.7266 71.1359 14.8984 71.0109 15.125C70.8885 15.349 70.8273 15.6198 70.8273 15.9375ZM78.9139 19.6211C78.3514 19.6211 77.8605 19.4922 77.4412 19.2344C77.022 18.9766 76.6965 18.6159 76.4647 18.1523C76.2329 17.6888 76.117 17.1471 76.117 16.5273C76.117 15.9049 76.2329 15.3607 76.4647 14.8945C76.6965 14.4284 77.022 14.0664 77.4412 13.8086C77.8605 13.5508 78.3514 13.4219 78.9139 13.4219C79.4764 13.4219 79.9673 13.5508 80.3866 13.8086C80.8058 14.0664 81.1314 14.4284 81.3631 14.8945C81.5949 15.3607 81.7108 15.9049 81.7108 16.5273C81.7108 17.1471 81.5949 17.6888 81.3631 18.1523C81.1314 18.6159 80.8058 18.9766 80.3866 19.2344C79.9673 19.4922 79.4764 19.6211 78.9139 19.6211ZM78.9178 18.6406C79.2824 18.6406 79.5845 18.5443 79.8241 18.3516C80.0636 18.1589 80.2407 17.9023 80.3553 17.582C80.4725 17.2617 80.5311 16.9089 80.5311 16.5234C80.5311 16.1406 80.4725 15.7891 80.3553 15.4687C80.2407 15.1458 80.0636 14.8867 79.8241 14.6914C79.5845 14.4961 79.2824 14.3984 78.9178 14.3984C78.5506 14.3984 78.2459 14.4961 78.0037 14.6914C77.7642 14.8867 77.5858 15.1458 77.4686 15.4687C77.354 15.7891 77.2967 16.1406 77.2967 16.5234C77.2967 16.9089 77.354 17.2617 77.4686 17.582C77.5858 17.9023 77.7642 18.1589 78.0037 18.3516C78.2459 18.5443 78.5506 18.6406 78.9178 18.6406ZM85.9253 13.5V14.4375H82.6479V13.5H85.9253ZM83.5268 12.0625H84.6948V17.7383C84.6948 17.9648 84.7287 18.1354 84.7964 18.25C84.8641 18.362 84.9513 18.4388 85.0581 18.4805C85.1675 18.5195 85.286 18.5391 85.4136 18.5391C85.5073 18.5391 85.5893 18.5326 85.6596 18.5195C85.73 18.5065 85.7846 18.4961 85.8237 18.4883L86.0346 19.4531C85.9669 19.4792 85.8706 19.5052 85.7456 19.5313C85.6206 19.5599 85.4643 19.5755 85.2768 19.5781C84.9695 19.5833 84.6831 19.5286 84.4175 19.4141C84.1518 19.2995 83.937 19.1224 83.7729 18.8828C83.6089 18.6432 83.5268 18.3424 83.5268 17.9805V12.0625ZM89.7902 19.6211C89.2277 19.6211 88.7368 19.4922 88.3175 19.2344C87.8982 18.9766 87.5727 18.6159 87.3409 18.1523C87.1092 17.6888 86.9933 17.1471 86.9933 16.5273C86.9933 15.9049 87.1092 15.3607 87.3409 14.8945C87.5727 14.4284 87.8982 14.0664 88.3175 13.8086C88.7368 13.5508 89.2277 13.4219 89.7902 13.4219C90.3527 13.4219 90.8435 13.5508 91.2628 13.8086C91.6821 14.0664 92.0076 14.4284 92.2394 14.8945C92.4711 15.3607 92.587 15.9049 92.587 16.5273C92.587 17.1471 92.4711 17.6888 92.2394 18.1523C92.0076 18.6159 91.6821 18.9766 91.2628 19.2344C90.8435 19.4922 90.3527 19.6211 89.7902 19.6211ZM89.7941 18.6406C90.1586 18.6406 90.4607 18.5443 90.7003 18.3516C90.9399 18.1589 91.117 17.9023 91.2316 17.582C91.3488 17.2617 91.4073 16.9089 91.4073 16.5234C91.4073 16.1406 91.3488 15.7891 91.2316 15.4687C91.117 15.1458 90.9399 14.8867 90.7003 14.6914C90.4607 14.4961 90.1586 14.3984 89.7941 14.3984C89.4269 14.3984 89.1222 14.4961 88.88 14.6914C88.6404 14.8867 88.462 15.1458 88.3448 15.4687C88.2303 15.7891 88.173 16.1406 88.173 16.5234C88.173 16.9089 88.2303 17.2617 88.3448 17.582C88.462 17.9023 88.6404 18.1589 88.88 18.3516C89.1222 18.5443 89.4269 18.6406 89.7941 18.6406Z" fill="#3871E0"/>
<rect x="0.5" y="0.5" width="107" height="29" rx="14.5" stroke="#DBDCE0"/>
</svg>
