<svg width="20" height="20" viewBox="0 0 20 20" fill="none" xmlns="http://www.w3.org/2000/svg">
<path fill-rule="evenodd" clip-rule="evenodd" d="M9.99992 6.66668C10.9166 6.66668 11.6666 5.91668 11.6666 5.00001C11.6666 4.08334 10.9166 3.33334 9.99992 3.33334C9.08325 3.33334 8.33325 4.08334 8.33325 5.00001C8.33325 5.91668 9.08325 6.66668 9.99992 6.66668ZM9.99992 8.33334C9.08325 8.33334 8.33325 9.08334 8.33325 10C8.33325 10.9167 9.08325 11.6667 9.99992 11.6667C10.9166 11.6667 11.6666 10.9167 11.6666 10C11.6666 9.08334 10.9166 8.33334 9.99992 8.33334ZM8.33325 15C8.33325 14.0833 9.08325 13.3333 9.99992 13.3333C10.9166 13.3333 11.6666 14.0833 11.6666 15C11.6666 15.9167 10.9166 16.6667 9.99992 16.6667C9.08325 16.6667 8.33325 15.9167 8.33325 15Z" fill="#3D4043"/>
</svg>
