<svg width="360" height="70" viewBox="0 0 360 70" fill="none" xmlns="http://www.w3.org/2000/svg">
<g clip-path="url(#clip0_83_34970)">
<rect width="360" height="70" fill="white"/>
<g clip-path="url(#clip1_83_34970)" filter="url(#filter0_dd_83_34970)">
<rect width="360" height="70" fill="white"/>
<rect width="360" height="14" transform="translate(0 56)" fill="white"/>
<rect x="148" y="64" width="64" height="2" rx="1" fill="#949494"/>
</g>
<path d="M112.222 25.9H110.667V21H109.111V25.9H107.556V21H106V25.9C106 27.384 107.291 28.588 108.917 28.679V35H110.861V28.679C112.487 28.588 113.778 27.384 113.778 25.9V21H112.222V25.9ZM116.111 23.8V29.4H118.056V35H120V21C117.853 21 116.111 22.568 116.111 23.8Z" fill="#3871E0"/>
<path d="M139.828 28C139.828 28.8542 139.672 29.5885 139.359 30.2031C139.047 30.8151 138.618 31.2865 138.074 31.6172C137.533 31.9453 136.917 32.1094 136.227 32.1094C135.534 32.1094 134.915 31.9453 134.371 31.6172C133.829 31.2865 133.402 30.8138 133.09 30.1992C132.777 29.5846 132.621 28.8516 132.621 28C132.621 27.1458 132.777 26.4128 133.09 25.8008C133.402 25.1862 133.829 24.7148 134.371 24.3867C134.915 24.056 135.534 23.8906 136.227 23.8906C136.917 23.8906 137.533 24.056 138.074 24.3867C138.618 24.7148 139.047 25.1862 139.359 25.8008C139.672 26.4128 139.828 27.1458 139.828 28ZM138.633 28C138.633 27.349 138.527 26.8008 138.316 26.3555C138.108 25.9076 137.822 25.569 137.457 25.3398C137.095 25.1081 136.685 24.9922 136.227 24.9922C135.766 24.9922 135.354 25.1081 134.992 25.3398C134.63 25.569 134.344 25.9076 134.133 26.3555C133.924 26.8008 133.82 27.349 133.82 28C133.82 28.651 133.924 29.2005 134.133 29.6484C134.344 30.0937 134.63 30.4323 134.992 30.6641C135.354 30.8932 135.766 31.0078 136.227 31.0078C136.685 31.0078 137.095 30.8932 137.457 30.6641C137.822 30.4323 138.108 30.0937 138.316 29.6484C138.527 29.2005 138.633 28.651 138.633 28ZM141.349 32V26H142.478V26.9531H142.541C142.65 26.6302 142.843 26.3763 143.119 26.1914C143.397 26.0039 143.713 25.9102 144.064 25.9102C144.137 25.9102 144.223 25.9128 144.322 25.918C144.423 25.9232 144.503 25.9297 144.56 25.9375V27.0547C144.513 27.0417 144.43 27.0273 144.31 27.0117C144.19 26.9935 144.071 26.9844 143.951 26.9844C143.675 26.9844 143.429 27.043 143.213 27.1602C142.999 27.2747 142.83 27.4349 142.705 27.6406C142.58 27.8437 142.517 28.0755 142.517 28.3359V32H141.349ZM147.712 32.1172C147.228 32.1172 146.796 31.9935 146.415 31.7461C146.038 31.4961 145.741 31.1406 145.525 30.6797C145.311 30.2161 145.204 29.6602 145.204 29.0117C145.204 28.3633 145.312 27.8086 145.529 27.3477C145.747 26.8867 146.047 26.5339 146.427 26.2891C146.807 26.0443 147.238 25.9219 147.72 25.9219C148.092 25.9219 148.392 25.9844 148.618 26.1094C148.848 26.2318 149.025 26.375 149.15 26.5391C149.277 26.7031 149.376 26.8477 149.447 26.9727H149.517V24H150.685V32H149.544V31.0664H149.447C149.376 31.194 149.275 31.3398 149.142 31.5039C149.012 31.668 148.832 31.8112 148.603 31.9336C148.374 32.056 148.077 32.1172 147.712 32.1172ZM147.97 31.1211C148.306 31.1211 148.59 31.0326 148.822 30.8555C149.056 30.6758 149.233 30.4271 149.353 30.1094C149.475 29.7917 149.536 29.4219 149.536 29C149.536 28.5833 149.477 28.2187 149.357 27.9062C149.237 27.5937 149.061 27.3503 148.829 27.1758C148.598 27.0013 148.311 26.9141 147.97 26.9141C147.618 26.9141 147.325 27.0052 147.091 27.1875C146.857 27.3698 146.68 27.6185 146.56 27.9336C146.443 28.2487 146.384 28.6042 146.384 29C146.384 29.401 146.444 29.7617 146.564 30.082C146.684 30.4023 146.861 30.6562 147.095 30.8437C147.332 31.0286 147.624 31.1211 147.97 31.1211ZM155.048 32.1211C154.457 32.1211 153.948 31.9948 153.52 31.7422C153.096 31.487 152.768 31.1289 152.536 30.668C152.307 30.2044 152.192 29.6615 152.192 29.0391C152.192 28.4245 152.307 27.8828 152.536 27.4141C152.768 26.9453 153.091 26.5794 153.505 26.3164C153.921 26.0534 154.408 25.9219 154.966 25.9219C155.304 25.9219 155.632 25.9779 155.95 26.0898C156.268 26.2018 156.553 26.3776 156.806 26.6172C157.058 26.8568 157.257 27.168 157.403 27.5508C157.549 27.931 157.622 28.3932 157.622 28.9375V29.3516H152.852V28.4766H156.477C156.477 28.1693 156.415 27.8971 156.29 27.6602C156.165 27.4206 155.989 27.2318 155.763 27.0937C155.539 26.9557 155.276 26.8867 154.974 26.8867C154.645 26.8867 154.359 26.9674 154.114 27.1289C153.872 27.2878 153.684 27.4961 153.552 27.7539C153.421 28.0091 153.356 28.2865 153.356 28.5859V29.2695C153.356 29.6706 153.427 30.0117 153.567 30.293C153.711 30.5742 153.91 30.7891 154.165 30.9375C154.42 31.0833 154.718 31.1562 155.059 31.1562C155.281 31.1562 155.483 31.125 155.665 31.0625C155.847 30.9974 156.005 30.901 156.138 30.7734C156.27 30.6458 156.372 30.4883 156.442 30.3008L157.548 30.5C157.459 30.8255 157.3 31.1107 157.071 31.3555C156.845 31.5977 156.559 31.7865 156.216 31.9219C155.875 32.0547 155.485 32.1211 155.048 32.1211ZM159.028 32V26H160.157V26.9531H160.219C160.329 26.6302 160.521 26.3763 160.797 26.1914C161.076 26.0039 161.391 25.9102 161.743 25.9102C161.816 25.9102 161.902 25.9128 162.001 25.918C162.102 25.9232 162.182 25.9297 162.239 25.9375V27.0547C162.192 27.0417 162.109 27.0273 161.989 27.0117C161.869 26.9935 161.749 26.9844 161.629 26.9844C161.353 26.9844 161.107 27.043 160.891 27.1602C160.678 27.2747 160.508 27.4349 160.383 27.6406C160.258 27.8437 160.196 28.0755 160.196 28.3359V32H159.028Z" fill="#3871E0"/>
<rect x="99.5" y="12.5" width="70" height="31" rx="15.5" stroke="#DBDCE0"/>
<path d="M265 33V20.1586C265 19.8497 265.139 19.5793 265.418 19.3476C265.696 19.1159 266.021 19 266.393 19H276.607C276.979 19 277.304 19.1159 277.582 19.3476C277.861 19.5793 278 19.8497 278 20.1586V33L271.5 30.6828L265 33ZM266.393 31.2428L271.5 29.4469L276.607 31.2428V20.1586H266.393V31.2428ZM266.393 20.1586H276.607H271.5H266.393Z" fill="#3871E0"/>
<rect opacity="0.5" x="255.5" y="11.5" width="73" height="32" rx="16" stroke="#DBDCE0"/>
<path d="M295.242 25.1016C295.201 24.7318 295.029 24.4453 294.727 24.2422C294.424 24.0365 294.044 23.9336 293.586 23.9336C293.258 23.9336 292.974 23.9857 292.734 24.0898C292.495 24.1914 292.309 24.332 292.176 24.5117C292.046 24.6888 291.98 24.8906 291.98 25.1172C291.98 25.3073 292.025 25.4714 292.113 25.6094C292.204 25.7474 292.323 25.8633 292.469 25.957C292.617 26.0482 292.776 26.125 292.945 26.1875C293.115 26.2474 293.277 26.2969 293.434 26.3359L294.215 26.5391C294.47 26.6016 294.732 26.6862 295 26.793C295.268 26.8997 295.517 27.0404 295.746 27.2148C295.975 27.3893 296.16 27.6055 296.301 27.8633C296.444 28.1211 296.516 28.4297 296.516 28.7891C296.516 29.2422 296.398 29.6445 296.164 29.9961C295.932 30.3477 295.595 30.625 295.152 30.8281C294.712 31.0313 294.18 31.1328 293.555 31.1328C292.956 31.1328 292.438 31.0378 292 30.8477C291.563 30.6576 291.22 30.388 290.973 30.0391C290.725 29.6875 290.589 29.2708 290.563 28.7891H291.773C291.797 29.0781 291.891 29.319 292.055 29.5117C292.221 29.7018 292.434 29.8437 292.691 29.9375C292.952 30.0286 293.237 30.0742 293.547 30.0742C293.888 30.0742 294.191 30.0208 294.457 29.9141C294.725 29.8047 294.936 29.6536 295.09 29.4609C295.243 29.2656 295.32 29.0378 295.32 28.7773C295.32 28.5404 295.253 28.3464 295.117 28.1953C294.984 28.0443 294.803 27.9193 294.574 27.8203C294.348 27.7214 294.091 27.6341 293.805 27.5586L292.859 27.3008C292.219 27.1263 291.711 26.8698 291.336 26.5312C290.964 26.1927 290.777 25.7448 290.777 25.1875C290.777 24.7266 290.902 24.3242 291.152 23.9805C291.402 23.6367 291.741 23.3698 292.168 23.1797C292.595 22.987 293.077 22.8906 293.613 22.8906C294.155 22.8906 294.633 22.9857 295.047 23.1758C295.464 23.3659 295.792 23.6276 296.031 23.9609C296.271 24.2917 296.396 24.6719 296.406 25.1016H295.242ZM299.72 31.1328C299.34 31.1328 298.996 31.0625 298.689 30.9219C298.382 30.7786 298.138 30.5716 297.959 30.3008C297.782 30.0299 297.693 29.6979 297.693 29.3047C297.693 28.9661 297.758 28.6875 297.888 28.4687C298.019 28.25 298.194 28.0768 298.416 27.9492C298.637 27.8216 298.884 27.7253 299.158 27.6602C299.431 27.5951 299.71 27.5456 299.994 27.5117C300.353 27.4701 300.645 27.4362 300.869 27.4102C301.093 27.3815 301.256 27.3359 301.357 27.2734C301.459 27.2109 301.509 27.1094 301.509 26.9687V26.9414C301.509 26.6003 301.413 26.3359 301.22 26.1484C301.03 25.9609 300.746 25.8672 300.369 25.8672C299.976 25.8672 299.666 25.9544 299.439 26.1289C299.215 26.3008 299.06 26.4922 298.974 26.7031L297.877 26.4531C298.007 26.0885 298.197 25.7943 298.447 25.5703C298.7 25.3437 298.99 25.1797 299.318 25.0781C299.646 24.974 299.991 24.9219 300.353 24.9219C300.593 24.9219 300.847 24.9505 301.115 25.0078C301.386 25.0625 301.638 25.1641 301.873 25.3125C302.11 25.4609 302.304 25.6732 302.455 25.9492C302.606 26.2227 302.681 26.5781 302.681 27.0156V31H301.541V30.1797H301.494C301.418 30.3307 301.305 30.4792 301.154 30.625C301.003 30.7708 300.809 30.8919 300.572 30.9883C300.335 31.0846 300.051 31.1328 299.72 31.1328ZM299.974 30.1953C300.297 30.1953 300.573 30.1315 300.802 30.0039C301.034 29.8763 301.21 29.7096 301.33 29.5039C301.452 29.2956 301.513 29.0729 301.513 28.8359V28.0625C301.472 28.1042 301.391 28.1432 301.271 28.1797C301.154 28.2135 301.02 28.2435 300.869 28.2695C300.718 28.293 300.571 28.3151 300.427 28.3359C300.284 28.3542 300.164 28.3698 300.068 28.3828C299.841 28.4115 299.634 28.4596 299.447 28.5273C299.262 28.5951 299.114 28.6927 299.002 28.8203C298.892 28.9453 298.838 29.112 298.838 29.3203C298.838 29.6094 298.944 29.8281 299.158 29.9766C299.371 30.1224 299.644 30.1953 299.974 30.1953ZM309.265 25L307.089 31H305.839L303.659 25H304.913L306.433 29.6172H306.495L308.011 25H309.265ZM312.854 31.1211C312.263 31.1211 311.754 30.9948 311.327 30.7422C310.903 30.487 310.574 30.1289 310.343 29.668C310.114 29.2044 309.999 28.6615 309.999 28.0391C309.999 27.4245 310.114 26.8828 310.343 26.4141C310.574 25.9453 310.897 25.5794 311.311 25.3164C311.728 25.0534 312.215 24.9219 312.772 24.9219C313.111 24.9219 313.439 24.9779 313.757 25.0898C314.074 25.2018 314.36 25.3776 314.612 25.6172C314.865 25.8568 315.064 26.168 315.21 26.5508C315.356 26.931 315.429 27.3932 315.429 27.9375V28.3516H310.659V27.4766H314.284C314.284 27.1693 314.222 26.8971 314.097 26.6602C313.972 26.4206 313.796 26.2318 313.569 26.0937C313.345 25.9557 313.082 25.8867 312.78 25.8867C312.452 25.8867 312.166 25.9674 311.921 26.1289C311.679 26.2878 311.491 26.4961 311.358 26.7539C311.228 27.0091 311.163 27.2865 311.163 27.5859V28.2695C311.163 28.6706 311.233 29.0117 311.374 29.293C311.517 29.5742 311.716 29.7891 311.972 29.9375C312.227 30.0833 312.525 30.1562 312.866 30.1562C313.087 30.1562 313.289 30.125 313.472 30.0625C313.654 29.9974 313.811 29.901 313.944 29.7734C314.077 29.6458 314.179 29.4883 314.249 29.3008L315.354 29.5C315.266 29.8255 315.107 30.1107 314.878 30.3555C314.651 30.5977 314.366 30.7865 314.022 30.9219C313.681 31.0547 313.292 31.1211 312.854 31.1211Z" fill="#3871E0"/>
<path d="M204.062 35C202.368 35 200.684 34.5833 199.01 33.75C197.337 32.9167 195.833 31.8333 194.5 30.5C193.167 29.1667 192.083 27.6632 191.25 25.9896C190.417 24.316 190 22.6319 190 20.9375C190 20.6736 190.09 20.4514 190.271 20.2708C190.451 20.0903 190.674 20 190.938 20H193.854C194.049 20 194.219 20.066 194.365 20.1979C194.51 20.3299 194.604 20.5069 194.646 20.7292L195.208 23.3542C195.236 23.5486 195.233 23.7257 195.198 23.8854C195.163 24.0451 195.09 24.1806 194.979 24.2917L192.896 26.3958C193.674 27.6875 194.545 28.8125 195.51 29.7708C196.476 30.7292 197.569 31.5417 198.792 32.2083L200.771 30.1667C200.91 30.0139 201.069 29.9062 201.25 29.8438C201.431 29.7812 201.611 29.7708 201.792 29.8125L204.271 30.3542C204.479 30.3958 204.653 30.5 204.792 30.6667C204.931 30.8333 205 31.0278 205 31.25V34.0625C205 34.3264 204.91 34.5486 204.729 34.7292C204.549 34.9097 204.326 35 204.062 35ZM192.271 25.25L193.958 23.5417L193.479 21.25H191.25C191.25 21.7917 191.333 22.3854 191.5 23.0312C191.667 23.6771 191.924 24.4167 192.271 25.25ZM199.958 32.8125C200.528 33.0764 201.146 33.2917 201.812 33.4583C202.479 33.625 203.125 33.7222 203.75 33.75V31.5208L201.604 31.0833L199.958 32.8125Z" fill="#3871E0"/>
<path d="M221.523 26.6016H220.305C220.258 26.3411 220.171 26.112 220.043 25.9141C219.915 25.7161 219.759 25.5482 219.574 25.4102C219.389 25.2721 219.182 25.168 218.953 25.0977C218.727 25.0273 218.486 24.9922 218.23 24.9922C217.77 24.9922 217.357 25.1081 216.992 25.3398C216.63 25.5716 216.344 25.9115 216.133 26.3594C215.924 26.8073 215.82 27.3542 215.82 28C215.82 28.651 215.924 29.2005 216.133 29.6484C216.344 30.0964 216.632 30.4349 216.996 30.6641C217.361 30.8932 217.771 31.0078 218.227 31.0078C218.479 31.0078 218.719 30.974 218.945 30.9062C219.174 30.8359 219.382 30.7331 219.566 30.5977C219.751 30.4622 219.908 30.2969 220.035 30.1016C220.165 29.9036 220.255 29.6771 220.305 29.4219L221.523 29.4258C221.458 29.819 221.332 30.181 221.145 30.5117C220.96 30.8398 220.721 31.1237 220.43 31.3633C220.141 31.6003 219.81 31.7839 219.438 31.9141C219.065 32.0443 218.659 32.1094 218.219 32.1094C217.526 32.1094 216.909 31.9453 216.367 31.6172C215.826 31.2865 215.398 30.8138 215.086 30.1992C214.776 29.5846 214.621 28.8516 214.621 28C214.621 27.1458 214.777 26.4128 215.09 25.8008C215.402 25.1862 215.829 24.7148 216.371 24.3867C216.913 24.056 217.529 23.8906 218.219 23.8906C218.643 23.8906 219.039 23.9518 219.406 24.0742C219.776 24.194 220.108 24.3711 220.402 24.6055C220.697 24.8372 220.94 25.1211 221.133 25.457C221.326 25.7904 221.456 26.1719 221.523 26.6016ZM224.73 32.1328C224.35 32.1328 224.006 32.0625 223.699 31.9219C223.392 31.7786 223.148 31.5716 222.968 31.3008C222.791 31.0299 222.703 30.6979 222.703 30.3047C222.703 29.9661 222.768 29.6875 222.898 29.4687C223.028 29.25 223.204 29.0768 223.425 28.9492C223.647 28.8216 223.894 28.7253 224.168 28.6602C224.441 28.5951 224.72 28.5456 225.004 28.5117C225.363 28.4701 225.655 28.4362 225.879 28.4102C226.103 28.3815 226.265 28.3359 226.367 28.2734C226.468 28.2109 226.519 28.1094 226.519 27.9687V27.9414C226.519 27.6003 226.423 27.3359 226.23 27.1484C226.04 26.9609 225.756 26.8672 225.379 26.8672C224.985 26.8672 224.675 26.9544 224.449 27.1289C224.225 27.3008 224.07 27.4922 223.984 27.7031L222.886 27.4531C223.017 27.0885 223.207 26.7943 223.457 26.5703C223.709 26.3437 224 26.1797 224.328 26.0781C224.656 25.974 225.001 25.9219 225.363 25.9219C225.603 25.9219 225.856 25.9505 226.125 26.0078C226.395 26.0625 226.648 26.1641 226.882 26.3125C227.119 26.4609 227.313 26.6732 227.464 26.9492C227.616 27.2227 227.691 27.5781 227.691 28.0156V32H226.55V31.1797H226.504C226.428 31.3307 226.315 31.4792 226.164 31.625C226.013 31.7708 225.819 31.8919 225.582 31.9883C225.345 32.0846 225.061 32.1328 224.73 32.1328ZM224.984 31.1953C225.307 31.1953 225.583 31.1315 225.812 31.0039C226.044 30.8763 226.22 30.7096 226.339 30.5039C226.462 30.2956 226.523 30.0729 226.523 29.8359V29.0625C226.481 29.1042 226.401 29.1432 226.281 29.1797C226.164 29.2135 226.03 29.2435 225.879 29.2695C225.728 29.293 225.58 29.3151 225.437 29.3359C225.294 29.3542 225.174 29.3698 225.078 29.3828C224.851 29.4115 224.644 29.4596 224.457 29.5273C224.272 29.5951 224.123 29.6927 224.011 29.8203C223.902 29.9453 223.847 30.112 223.847 30.3203C223.847 30.6094 223.954 30.8281 224.168 30.9766C224.381 31.1224 224.653 31.1953 224.984 31.1953ZM230.525 24V32H229.357V24H230.525ZM233.374 24V32H232.206V24H233.374Z" fill="#3871E0"/>
<rect x="176.5" y="12.5" width="72" height="30" rx="15" stroke="#DBDCE0"/>
<g filter="url(#filter1_d_83_34970)">
<path d="M9 26C9 16.6112 16.6112 9 26 9V9C35.3888 9 43 16.6112 43 26V26C43 35.3888 35.3888 43 26 43V43C16.6112 43 9 35.3888 9 26V26Z" fill="#3871E0"/>
</g>
<path d="M27.3523 20.3535C26.8811 19.8822 26.1173 19.8822 25.6461 20.3535L20.3534 25.6472C19.8822 26.1185 19.8822 26.8815 20.3534 27.352L25.6477 32.6465C26.1189 33.1178 26.8819 33.1178 27.3523 32.6465L32.6466 27.352C33.1178 26.8807 33.1178 26.1177 32.6466 25.6472L27.3523 20.3535ZM27.3117 26.8791V25.6879H26.0929C25.7697 25.6879 25.4597 25.8163 25.2312 26.0448C25.0026 26.2734 24.8742 26.5834 24.8742 26.9067V28.9381H24.0617V26.9067C24.0617 26.3679 24.2757 25.8512 24.6566 25.4703C25.0376 25.0893 25.5542 24.8753 26.0929 24.8753H27.3117V23.6841C27.3117 23.6455 27.3227 23.6077 27.3434 23.5751C27.3641 23.5426 27.3937 23.5166 27.4287 23.5002C27.4636 23.4838 27.5025 23.4778 27.5408 23.4827C27.5791 23.4877 27.6152 23.5034 27.6448 23.5281L29.5623 25.1256C29.6598 25.2068 29.6598 25.3563 29.5623 25.4376L27.6448 27.0351C27.6152 27.0598 27.5791 27.0755 27.5408 27.0804C27.5025 27.0854 27.4636 27.0793 27.4287 27.0629C27.3937 27.0466 27.3641 27.0206 27.3434 26.988C27.3227 26.9554 27.3117 26.9177 27.3117 26.8791V26.8791Z" fill="#FFFDFE"/>
<rect opacity="0.5" x="54.5" y="9.5" width="33" height="33" rx="16.5" stroke="#DBDCE0"/>
<path d="M71 20L66 32.5142L66.4733 33L71 30.9474L75.5267 33L76 32.5142L71 20Z" fill="#3871E0"/>
<rect opacity="0.5" x="335.5" y="12.5" width="73" height="32" rx="16" stroke="#DBDCE0"/>
<path d="M358 39C357.167 39 356.458 38.7083 355.875 38.125C355.292 37.5417 355 36.8333 355 36C355 35.8833 355.008 35.7623 355.025 35.637C355.042 35.5123 355.067 35.4 355.1 35.3L348.05 31.2C347.767 31.45 347.45 31.6457 347.1 31.787C346.75 31.929 346.383 32 346 32C345.167 32 344.458 31.7083 343.875 31.125C343.292 30.5417 343 29.8333 343 29C343 28.1667 343.292 27.4583 343.875 26.875C344.458 26.2917 345.167 26 346 26C346.383 26 346.75 26.0707 347.1 26.212C347.45 26.354 347.767 26.55 348.05 26.8L355.1 22.7C355.067 22.6 355.042 22.4877 355.025 22.363C355.008 22.2377 355 22.1167 355 22C355 21.1667 355.292 20.4583 355.875 19.875C356.458 19.2917 357.167 19 358 19C358.833 19 359.542 19.2917 360.125 19.875C360.708 20.4583 361 21.1667 361 22C361 22.8333 360.708 23.5417 360.125 24.125C359.542 24.7083 358.833 25 358 25C357.617 25 357.25 24.929 356.9 24.787C356.55 24.6457 356.233 24.45 355.95 24.2L348.9 28.3C348.933 28.4 348.958 28.5123 348.975 28.637C348.992 28.7623 349 28.8833 349 29C349 29.1167 348.992 29.2373 348.975 29.362C348.958 29.4873 348.933 29.6 348.9 29.7L355.95 33.8C356.233 33.55 356.55 33.354 356.9 33.212C357.25 33.0707 357.617 33 358 33C358.833 33 359.542 33.2917 360.125 33.875C360.708 34.4583 361 35.1667 361 36C361 36.8333 360.708 37.5417 360.125 38.125C359.542 38.7083 358.833 39 358 39Z" fill="#3871E0"/>
</g>
<defs>
<filter id="filter0_dd_83_34970" x="-11" y="-7.25" width="382" height="92" filterUnits="userSpaceOnUse" color-interpolation-filters="sRGB">
<feFlood flood-opacity="0" result="BackgroundImageFix"/>
<feColorMatrix in="SourceAlpha" type="matrix" values="0 0 0 0 0 0 0 0 0 0 0 0 0 0 0 0 0 0 127 0" result="hardAlpha"/>
<feOffset dy="3.75"/>
<feGaussianBlur stdDeviation="5.5"/>
<feColorMatrix type="matrix" values="0 0 0 0 0 0 0 0 0 0 0 0 0 0 0 0 0 0 0.19 0"/>
<feBlend mode="normal" in2="BackgroundImageFix" result="effect1_dropShadow_83_34970"/>
<feColorMatrix in="SourceAlpha" type="matrix" values="0 0 0 0 0 0 0 0 0 0 0 0 0 0 0 0 0 0 127 0" result="hardAlpha"/>
<feOffset dy="0.5"/>
<feGaussianBlur stdDeviation="2.5"/>
<feColorMatrix type="matrix" values="0 0 0 0 0 0 0 0 0 0 0 0 0 0 0 0 0 0 0.039 0"/>
<feBlend mode="normal" in2="effect1_dropShadow_83_34970" result="effect2_dropShadow_83_34970"/>
<feBlend mode="normal" in="SourceGraphic" in2="effect2_dropShadow_83_34970" result="shape"/>
</filter>
<filter id="filter1_d_83_34970" x="3" y="5" width="46" height="46" filterUnits="userSpaceOnUse" color-interpolation-filters="sRGB">
<feFlood flood-opacity="0" result="BackgroundImageFix"/>
<feColorMatrix in="SourceAlpha" type="matrix" values="0 0 0 0 0 0 0 0 0 0 0 0 0 0 0 0 0 0 127 0" result="hardAlpha"/>
<feOffset dy="2"/>
<feGaussianBlur stdDeviation="3"/>
<feComposite in2="hardAlpha" operator="out"/>
<feColorMatrix type="matrix" values="0 0 0 0 0 0 0 0 0 0 0 0 0 0 0 0 0 0 0.1 0"/>
<feBlend mode="normal" in2="BackgroundImageFix" result="effect1_dropShadow_83_34970"/>
<feBlend mode="normal" in="SourceGraphic" in2="effect1_dropShadow_83_34970" result="shape"/>
</filter>
<clipPath id="clip0_83_34970">
<rect width="360" height="70" fill="white"/>
</clipPath>
<clipPath id="clip1_83_34970">
<rect width="360" height="70" fill="white"/>
</clipPath>
</defs>
</svg>
