<svg width="360" height="27" viewBox="0 0 360 27" fill="none" xmlns="http://www.w3.org/2000/svg">
<path d="M115.632 9V1.72727H118.501C119.051 1.72727 119.519 1.82552 119.908 2.02202C120.298 2.21615 120.595 2.49195 120.799 2.84943C121.005 3.20455 121.108 3.6224 121.108 4.10298C121.108 4.58594 121.004 5.00142 120.795 5.34943C120.587 5.69508 120.285 5.96023 119.89 6.14489C119.497 6.32955 119.021 6.42188 118.462 6.42188H116.541V5.18608H118.214C118.507 5.18608 118.751 5.14583 118.945 5.06534C119.139 4.98485 119.284 4.86411 119.379 4.70312C119.476 4.54214 119.524 4.34209 119.524 4.10298C119.524 3.86151 119.476 3.65791 119.379 3.49219C119.284 3.32647 119.138 3.20099 118.942 3.11577C118.748 3.02817 118.503 2.98438 118.207 2.98438H117.17V9H115.632ZM119.56 5.69034L121.367 9H119.67L117.901 5.69034H119.56ZM122.195 9V1.72727H127.095V2.99503H123.732V4.72798H126.843V5.99574H123.732V7.73224H127.109V9H122.195ZM129.632 1.72727L131.389 7.25284H131.457L133.218 1.72727H134.923L132.416 9H130.434L127.923 1.72727H129.632ZM137.336 1.72727V9H135.798V1.72727H137.336ZM138.601 9V1.72727H143.501V2.99503H140.138V4.72798H143.249V5.99574H140.138V7.73224H143.516V9H138.601ZM146.361 9L144.28 1.72727H145.96L147.164 6.78054H147.224L148.552 1.72727H149.99L151.315 6.79119H151.379L152.583 1.72727H154.262L152.181 9H150.683L149.298 4.24503H149.241L147.86 9H146.361ZM158.962 3.81889C158.934 3.53243 158.812 3.3099 158.596 3.15128C158.381 2.99266 158.089 2.91335 157.719 2.91335C157.468 2.91335 157.256 2.94886 157.084 3.01989C156.911 3.08854 156.778 3.18442 156.686 3.30753C156.596 3.43063 156.551 3.57031 156.551 3.72656C156.546 3.85677 156.573 3.97041 156.633 4.06747C156.694 4.16454 156.778 4.24858 156.885 4.3196C156.991 4.38826 157.114 4.44863 157.254 4.50071C157.394 4.55043 157.543 4.59304 157.702 4.62855L158.355 4.7848C158.672 4.85582 158.963 4.95052 159.229 5.06889C159.494 5.18726 159.723 5.33286 159.917 5.50568C160.112 5.6785 160.262 5.8821 160.368 6.11648C160.477 6.35085 160.533 6.61955 160.535 6.92259C160.533 7.36766 160.419 7.75355 160.194 8.08026C159.972 8.40459 159.65 8.65672 159.229 8.83665C158.809 9.0142 158.304 9.10298 157.712 9.10298C157.125 9.10298 156.614 9.01302 156.178 8.8331C155.745 8.65317 155.406 8.38684 155.162 8.03409C154.921 7.67898 154.794 7.23982 154.782 6.71662H156.27C156.287 6.96046 156.357 7.16406 156.48 7.32741C156.605 7.4884 156.772 7.61032 156.981 7.69318C157.191 7.77367 157.429 7.81392 157.694 7.81392C157.955 7.81392 158.181 7.77604 158.373 7.70028C158.567 7.62453 158.717 7.51918 158.824 7.38423C158.93 7.24929 158.983 7.09422 158.983 6.91903C158.983 6.75568 158.935 6.61837 158.838 6.5071C158.743 6.39583 158.604 6.30114 158.419 6.22301C158.237 6.14489 158.013 6.07386 157.748 6.00994L156.956 5.81108C156.343 5.66193 155.858 5.42874 155.503 5.11151C155.148 4.79427 154.972 4.36695 154.974 3.82955C154.972 3.3892 155.089 3.0045 155.326 2.67543C155.565 2.34635 155.893 2.08949 156.309 1.90483C156.726 1.72017 157.2 1.62784 157.73 1.62784C158.27 1.62784 158.741 1.72017 159.143 1.90483C159.548 2.08949 159.863 2.34635 160.088 2.67543C160.313 3.0045 160.429 3.38565 160.436 3.81889H158.962Z" fill="#717579"/>
<path d="M189.632 9V1.72727H192.501C193.053 1.72727 193.523 1.83262 193.911 2.04332C194.299 2.25166 194.595 2.54167 194.799 2.91335C195.005 3.28267 195.108 3.70881 195.108 4.19176C195.108 4.67472 195.004 5.10085 194.795 5.47017C194.587 5.83949 194.285 6.12713 193.89 6.3331C193.497 6.53906 193.021 6.64205 192.462 6.64205H190.634V5.4098H192.214C192.51 5.4098 192.754 5.3589 192.945 5.2571C193.139 5.15294 193.284 5.00971 193.379 4.82741C193.476 4.64276 193.524 4.43087 193.524 4.19176C193.524 3.95028 193.476 3.73958 193.379 3.55966C193.284 3.37737 193.139 3.23651 192.945 3.13707C192.751 3.03527 192.505 2.98438 192.207 2.98438H191.17V9H189.632ZM196.107 9V1.72727H197.644V4.72798H200.766V1.72727H202.3V9H200.766V5.99574H197.644V9H196.107ZM210.251 5.36364C210.251 6.15672 210.101 6.83144 209.8 7.38778C209.502 7.94413 209.094 8.36908 208.578 8.66264C208.065 8.95384 207.487 9.09943 206.845 9.09943C206.199 9.09943 205.619 8.95265 205.105 8.65909C204.592 8.36553 204.186 7.94058 203.887 7.38423C203.589 6.82789 203.44 6.15436 203.44 5.36364C203.44 4.57055 203.589 3.89583 203.887 3.33949C204.186 2.78314 204.592 2.35937 205.105 2.06818C205.619 1.77462 206.199 1.62784 206.845 1.62784C207.487 1.62784 208.065 1.77462 208.578 2.06818C209.094 2.35937 209.502 2.78314 209.8 3.33949C210.101 3.89583 210.251 4.57055 210.251 5.36364ZM208.692 5.36364C208.692 4.84991 208.615 4.41667 208.461 4.06392C208.31 3.71117 208.095 3.44366 207.818 3.26136C207.541 3.07907 207.217 2.98793 206.845 2.98793C206.474 2.98793 206.149 3.07907 205.872 3.26136C205.595 3.44366 205.38 3.71117 205.226 4.06392C205.075 4.41667 204.999 4.84991 204.999 5.36364C204.999 5.87737 205.075 6.31061 205.226 6.66335C205.38 7.0161 205.595 7.28362 205.872 7.46591C206.149 7.6482 206.474 7.73935 206.845 7.73935C207.217 7.73935 207.541 7.6482 207.818 7.46591C208.095 7.28362 208.31 7.0161 208.461 6.66335C208.615 6.31061 208.692 5.87737 208.692 5.36364ZM210.781 2.99503V1.72727H216.754V2.99503H214.527V9H213.007V2.99503H210.781ZM224.089 5.36364C224.089 6.15672 223.938 6.83144 223.638 7.38778C223.339 7.94413 222.932 8.36908 222.416 8.66264C221.902 8.95384 221.325 9.09943 220.683 9.09943C220.037 9.09943 219.457 8.95265 218.943 8.65909C218.429 8.36553 218.023 7.94058 217.725 7.38423C217.427 6.82789 217.278 6.15436 217.278 5.36364C217.278 4.57055 217.427 3.89583 217.725 3.33949C218.023 2.78314 218.429 2.35937 218.943 2.06818C219.457 1.77462 220.037 1.62784 220.683 1.62784C221.325 1.62784 221.902 1.77462 222.416 2.06818C222.932 2.35937 223.339 2.78314 223.638 3.33949C223.938 3.89583 224.089 4.57055 224.089 5.36364ZM222.53 5.36364C222.53 4.84991 222.453 4.41667 222.299 4.06392C222.147 3.71117 221.933 3.44366 221.656 3.26136C221.379 3.07907 221.055 2.98793 220.683 2.98793C220.312 2.98793 219.987 3.07907 219.71 3.26136C219.433 3.44366 219.218 3.71117 219.064 4.06392C218.912 4.41667 218.837 4.84991 218.837 5.36364C218.837 5.87737 218.912 6.31061 219.064 6.66335C219.218 7.0161 219.433 7.28362 219.71 7.46591C219.987 7.6482 220.312 7.73935 220.683 7.73935C221.055 7.73935 221.379 7.6482 221.656 7.46591C221.933 7.28362 222.147 7.0161 222.299 6.66335C222.453 6.31061 222.53 5.87737 222.53 5.36364ZM229.173 3.81889C229.145 3.53243 229.023 3.3099 228.807 3.15128C228.592 2.99266 228.3 2.91335 227.93 2.91335C227.679 2.91335 227.467 2.94886 227.295 3.01989C227.122 3.08854 226.989 3.18442 226.897 3.30753C226.807 3.43063 226.762 3.57031 226.762 3.72656C226.757 3.85677 226.784 3.97041 226.844 4.06747C226.905 4.16454 226.989 4.24858 227.096 4.3196C227.202 4.38826 227.325 4.44863 227.465 4.50071C227.605 4.55043 227.754 4.59304 227.912 4.62855L228.566 4.7848C228.883 4.85582 229.174 4.95052 229.439 5.06889C229.705 5.18726 229.934 5.33286 230.128 5.50568C230.323 5.6785 230.473 5.8821 230.579 6.11648C230.688 6.35085 230.744 6.61955 230.746 6.92259C230.744 7.36766 230.63 7.75355 230.405 8.08026C230.183 8.40459 229.861 8.65672 229.439 8.83665C229.02 9.0142 228.515 9.10298 227.923 9.10298C227.336 9.10298 226.825 9.01302 226.389 8.8331C225.956 8.65317 225.617 8.38684 225.373 8.03409C225.132 7.67898 225.005 7.23982 224.993 6.71662H226.481C226.498 6.96046 226.568 7.16406 226.691 7.32741C226.816 7.4884 226.983 7.61032 227.192 7.69318C227.402 7.77367 227.64 7.81392 227.905 7.81392C228.166 7.81392 228.392 7.77604 228.584 7.70028C228.778 7.62453 228.928 7.51918 229.035 7.38423C229.141 7.24929 229.194 7.09422 229.194 6.91903C229.194 6.75568 229.146 6.61837 229.049 6.5071C228.954 6.39583 228.814 6.30114 228.63 6.22301C228.448 6.14489 228.224 6.07386 227.959 6.00994L227.167 5.81108C226.554 5.66193 226.069 5.42874 225.714 5.11151C225.359 4.79427 225.183 4.36695 225.185 3.82955C225.183 3.3892 225.3 3.0045 225.537 2.67543C225.776 2.34635 226.104 2.08949 226.52 1.90483C226.937 1.72017 227.411 1.62784 227.941 1.62784C228.481 1.62784 228.952 1.72017 229.354 1.90483C229.759 2.08949 230.074 2.34635 230.299 2.67543C230.524 3.0045 230.64 3.38565 230.647 3.81889H229.173Z" fill="#3871E0"/>
<path d="M265.124 1.72727H266.662V6.45028C266.662 6.98059 266.535 7.4446 266.282 7.84233C266.031 8.24006 265.679 8.55019 265.227 8.77273C264.775 8.9929 264.248 9.10298 263.647 9.10298C263.043 9.10298 262.515 8.9929 262.063 8.77273C261.611 8.55019 261.259 8.24006 261.009 7.84233C260.758 7.4446 260.632 6.98059 260.632 6.45028V1.72727H262.17V6.31889C262.17 6.59588 262.23 6.84209 262.351 7.05753C262.474 7.27296 262.647 7.44223 262.869 7.56534C263.092 7.68845 263.351 7.75 263.647 7.75C263.945 7.75 264.205 7.68845 264.425 7.56534C264.647 7.44223 264.819 7.27296 264.94 7.05753C265.063 6.84209 265.124 6.59588 265.124 6.31889V1.72727ZM267.927 9V1.72727H270.796C271.348 1.72727 271.818 1.83262 272.206 2.04332C272.594 2.25166 272.89 2.54167 273.094 2.91335C273.3 3.28267 273.403 3.70881 273.403 4.19176C273.403 4.67472 273.299 5.10085 273.09 5.47017C272.882 5.83949 272.58 6.12713 272.185 6.3331C271.792 6.53906 271.316 6.64205 270.757 6.64205H268.928V5.4098H270.509C270.805 5.4098 271.048 5.3589 271.24 5.2571C271.434 5.15294 271.579 5.00971 271.673 4.82741C271.771 4.64276 271.819 4.43087 271.819 4.19176C271.819 3.95028 271.771 3.73958 271.673 3.55966C271.579 3.37737 271.434 3.23651 271.24 3.13707C271.046 3.03527 270.8 2.98438 270.502 2.98438H269.465V9H267.927ZM276.98 9H274.402V1.72727H277.001C277.733 1.72727 278.362 1.87287 278.89 2.16406C279.418 2.45289 279.824 2.86837 280.108 3.41051C280.395 3.95265 280.538 4.60133 280.538 5.35653C280.538 6.11411 280.395 6.76515 280.108 7.30966C279.824 7.85417 279.416 8.27202 278.883 8.56321C278.353 8.8544 277.718 9 276.98 9ZM275.939 7.68253H276.916C277.37 7.68253 277.753 7.60204 278.063 7.44105C278.375 7.2777 278.61 7.02557 278.766 6.68466C278.925 6.34138 279.004 5.89867 279.004 5.35653C279.004 4.81913 278.925 4.37997 278.766 4.03906C278.61 3.69815 278.377 3.44721 278.066 3.28622C277.756 3.12524 277.374 3.04474 276.919 3.04474H275.939V7.68253ZM282.52 9H280.873L283.383 1.72727H285.365L287.872 9H286.224L284.403 3.3892H284.346L282.52 9ZM282.417 6.14134H286.309V7.34162H282.417V6.14134ZM287.582 2.99503V1.72727H293.555V2.99503H291.328V9H289.808V2.99503H287.582ZM294.538 9V1.72727H299.439V2.99503H296.076V4.72798H299.187V5.99574H296.076V7.73224H299.453V9H294.538ZM304.607 3.81889C304.578 3.53243 304.456 3.3099 304.241 3.15128C304.026 2.99266 303.733 2.91335 303.364 2.91335C303.113 2.91335 302.901 2.94886 302.728 3.01989C302.555 3.08854 302.423 3.18442 302.33 3.30753C302.24 3.43063 302.195 3.57031 302.195 3.72656C302.191 3.85677 302.218 3.97041 302.277 4.06747C302.339 4.16454 302.423 4.24858 302.529 4.3196C302.636 4.38826 302.759 4.44863 302.899 4.50071C303.038 4.55043 303.187 4.59304 303.346 4.62855L303.999 4.7848C304.317 4.85582 304.608 4.95052 304.873 5.06889C305.138 5.18726 305.368 5.33286 305.562 5.50568C305.756 5.6785 305.906 5.8821 306.013 6.11648C306.122 6.35085 306.177 6.61955 306.18 6.92259C306.177 7.36766 306.064 7.75355 305.839 8.08026C305.616 8.40459 305.294 8.65672 304.873 8.83665C304.454 9.0142 303.949 9.10298 303.357 9.10298C302.77 9.10298 302.258 9.01302 301.823 8.8331C301.389 8.65317 301.051 8.38684 300.807 8.03409C300.566 7.67898 300.439 7.23982 300.427 6.71662H301.915C301.932 6.96046 302.001 7.16406 302.124 7.32741C302.25 7.4884 302.417 7.61032 302.625 7.69318C302.836 7.77367 303.074 7.81392 303.339 7.81392C303.599 7.81392 303.825 7.77604 304.017 7.70028C304.211 7.62453 304.362 7.51918 304.468 7.38423C304.575 7.24929 304.628 7.09422 304.628 6.91903C304.628 6.75568 304.579 6.61837 304.482 6.5071C304.388 6.39583 304.248 6.30114 304.063 6.22301C303.881 6.14489 303.657 6.07386 303.392 6.00994L302.6 5.81108C301.987 5.66193 301.503 5.42874 301.148 5.11151C300.793 4.79427 300.616 4.36695 300.619 3.82955C300.616 3.3892 300.734 3.0045 300.97 2.67543C301.209 2.34635 301.537 2.08949 301.954 1.90483C302.371 1.72017 302.844 1.62784 303.374 1.62784C303.914 1.62784 304.385 1.72017 304.788 1.90483C305.193 2.08949 305.508 2.34635 305.732 2.67543C305.957 3.0045 306.073 3.38565 306.08 3.81889H304.607Z" fill="#717579"/>
<path d="M336.886 9H335.238L337.749 1.72727H339.73L342.237 9H340.589L338.768 3.3892H338.711L336.886 9ZM336.783 6.14134H340.675V7.34162H336.783V6.14134ZM343.113 9V1.72727H346.025C346.56 1.72727 347.006 1.80658 347.363 1.9652C347.721 2.12382 347.989 2.34399 348.169 2.62571C348.349 2.90507 348.439 3.22704 348.439 3.59162C348.439 3.87571 348.382 4.12547 348.269 4.34091C348.155 4.55398 347.999 4.72917 347.8 4.86648C347.604 5.00142 347.379 5.0973 347.125 5.15412V5.22514C347.402 5.23698 347.662 5.3151 347.903 5.45952C348.147 5.60393 348.345 5.80634 348.496 6.06676C348.648 6.32481 348.723 6.63258 348.723 6.99006C348.723 7.37595 348.627 7.72041 348.436 8.02344C348.246 8.3241 347.966 8.56203 347.594 8.73722C347.222 8.91241 346.764 9 346.22 9H343.113ZM344.65 7.7429H345.904C346.332 7.7429 346.645 7.66122 346.841 7.49787C347.038 7.33215 347.136 7.11198 347.136 6.83736C347.136 6.63613 347.087 6.45857 346.99 6.30469C346.893 6.1508 346.755 6.03007 346.575 5.94247C346.397 5.85488 346.185 5.81108 345.939 5.81108H344.65V7.7429ZM344.65 4.7706H345.79C346.001 4.7706 346.188 4.7339 346.351 4.66051C346.517 4.58475 346.647 4.47822 346.742 4.34091C346.839 4.2036 346.887 4.03906 346.887 3.8473C346.887 3.58452 346.794 3.37263 346.607 3.21165C346.422 3.05066 346.159 2.97017 345.819 2.97017H344.65V4.7706ZM356.407 5.36364C356.407 6.15672 356.257 6.83144 355.956 7.38778C355.658 7.94413 355.251 8.36908 354.735 8.66264C354.221 8.95384 353.643 9.09943 353.002 9.09943C352.355 9.09943 351.775 8.95265 351.262 8.65909C350.748 8.36553 350.342 7.94058 350.044 7.38423C349.745 6.82789 349.596 6.15436 349.596 5.36364C349.596 4.57055 349.745 3.89583 350.044 3.33949C350.342 2.78314 350.748 2.35937 351.262 2.06818C351.775 1.77462 352.355 1.62784 353.002 1.62784C353.643 1.62784 354.221 1.77462 354.735 2.06818C355.251 2.35937 355.658 2.78314 355.956 3.33949C356.257 3.89583 356.407 4.57055 356.407 5.36364ZM354.848 5.36364C354.848 4.84991 354.771 4.41667 354.617 4.06392C354.466 3.71117 354.252 3.44366 353.975 3.26136C353.698 3.07907 353.373 2.98793 353.002 2.98793C352.63 2.98793 352.306 3.07907 352.029 3.26136C351.752 3.44366 351.536 3.71117 351.382 4.06392C351.231 4.41667 351.155 4.84991 351.155 5.36364C351.155 5.87737 351.231 6.31061 351.382 6.66335C351.536 7.0161 351.752 7.28362 352.029 7.46591C352.306 7.6482 352.63 7.73935 353.002 7.73935C353.373 7.73935 353.698 7.6482 353.975 7.46591C354.252 7.28362 354.466 7.0161 354.617 6.66335C354.771 6.31061 354.848 5.87737 354.848 5.36364ZM362.038 1.72727H363.576V6.45028C363.576 6.98059 363.449 7.4446 363.196 7.84233C362.945 8.24006 362.594 8.55019 362.141 8.77273C361.689 8.9929 361.162 9.10298 360.561 9.10298C359.957 9.10298 359.429 8.9929 358.977 8.77273C358.525 8.55019 358.174 8.24006 357.923 7.84233C357.672 7.4446 357.546 6.98059 357.546 6.45028V1.72727H359.084V6.31889C359.084 6.59588 359.144 6.84209 359.265 7.05753C359.388 7.27296 359.561 7.44223 359.783 7.56534C360.006 7.68845 360.265 7.75 360.561 7.75C360.859 7.75 361.119 7.68845 361.339 7.56534C361.561 7.44223 361.733 7.27296 361.854 7.05753C361.977 6.84209 362.038 6.59588 362.038 6.31889V1.72727ZM364.564 2.99503V1.72727H370.537V2.99503H368.311V9H366.791V2.99503H364.564Z" fill="#717579"/>
<path d="M190 27C190 24.2386 192.239 22 195 22H226C228.761 22 231 24.2386 231 27H190Z" fill="#3871E0"/>
<path d="M-18.89 9.16C-19.4233 9.16 -19.92 9.06333 -20.38 8.87C-20.8333 8.67667 -21.2267 8.41333 -21.56 8.08C-21.8933 7.74 -22.1567 7.34333 -22.35 6.89C-22.5367 6.43 -22.63 5.94 -22.63 5.42C-22.63 4.9 -22.5367 4.41333 -22.35 3.96C-22.1567 3.5 -21.8933 3.10333 -21.56 2.77C-21.2267 2.43 -20.8333 2.16333 -20.38 1.97C-19.92 1.77667 -19.4233 1.68 -18.89 1.68C-18.3567 1.68 -17.8633 1.77667 -17.41 1.97C-16.95 2.16333 -16.5533 2.43 -16.22 2.77C-15.8867 3.10333 -15.6267 3.5 -15.44 3.96C-15.2467 4.41333 -15.15 4.9 -15.15 5.42C-15.15 5.94 -15.2467 6.43 -15.44 6.89C-15.6267 7.34333 -15.8867 7.74 -16.22 8.08C-16.5533 8.41333 -16.95 8.67667 -17.41 8.87C-17.8633 9.06333 -18.3567 9.16 -18.89 9.16ZM-18.89 7.88C-18.5567 7.88 -18.2467 7.82 -17.96 7.7C-17.6667 7.58 -17.4133 7.41333 -17.2 7.2C-16.98 6.98667 -16.81 6.73 -16.69 6.43C-16.5633 6.12333 -16.5 5.78667 -16.5 5.42C-16.5 5.05333 -16.5633 4.72 -16.69 4.42C-16.81 4.11333 -16.98 3.85333 -17.2 3.64C-17.4133 3.42667 -17.6667 3.26 -17.96 3.14C-18.2467 3.02 -18.5567 2.96 -18.89 2.96C-19.2233 2.96 -19.5367 3.02 -19.83 3.14C-20.1167 3.26 -20.37 3.42667 -20.59 3.64C-20.8033 3.85333 -20.9733 4.11333 -21.1 4.42C-21.22 4.72 -21.28 5.05333 -21.28 5.42C-21.28 5.78667 -21.22 6.12333 -21.1 6.43C-20.9733 6.73 -20.8033 6.98667 -20.59 7.2C-20.37 7.41333 -20.1167 7.58 -19.83 7.7C-19.5367 7.82 -19.2233 7.88 -18.89 7.88ZM-14.9601 1.84H-13.5001L-12.0201 6.15L-11.7601 7.07H-11.6801L-11.4001 6.15L-9.86008 1.84H-8.40008L-11.0101 9H-12.4301L-14.9601 1.84ZM-6.2132 3.12V4.78H-3.3432V6.06H-6.2132V7.72H-3.0232V9H-7.5632V1.84H-3.0232V3.12H-6.2132ZM-1.78195 1.84H0.828047C1.18805 1.84 1.51471 1.89667 1.80805 2.01C2.10138 2.12333 2.35138 2.28 2.55805 2.48C2.77138 2.68 2.93471 2.92 3.04805 3.2C3.16138 3.47333 3.21805 3.77333 3.21805 4.1C3.21805 4.34 3.17805 4.56667 3.09805 4.78C3.01805 4.98667 2.90805 5.17667 2.76805 5.35C2.62805 5.51667 2.46471 5.66667 2.27805 5.8C2.09138 5.92667 1.89471 6.02667 1.68805 6.1L1.67805 6.17L3.59805 8.92V9H2.04805L0.198047 6.31H-0.431953V9H-1.78195V1.84ZM0.818047 5.07C1.12471 5.07 1.37471 4.97667 1.56805 4.79C1.76805 4.60333 1.86805 4.36667 1.86805 4.08C1.86805 3.95333 1.84471 3.83 1.79805 3.71C1.75805 3.59 1.69471 3.48333 1.60805 3.39C1.52138 3.29667 1.41138 3.22333 1.27805 3.17C1.15138 3.11 1.00471 3.08 0.838047 3.08H-0.431953V5.07H0.818047ZM3.81922 1.84H5.27922L6.75922 6.15L7.01922 7.07H7.09922L7.37922 6.15L8.91922 1.84H10.3792L7.76922 9H6.34922L3.81922 1.84ZM11.2161 1.84H12.5661V9H11.2161V1.84ZM15.3591 3.12V4.78H18.2291V6.06H15.3591V7.72H18.5491V9H14.0091V1.84H18.5491V3.12H15.3591ZM19.2303 1.84H20.6603L21.7703 6.02L21.9303 6.79H22.0103L22.2203 6.02L23.2503 2.8H24.5103L25.5503 6.02L25.7503 6.78H25.8303L25.9803 6.02L27.0203 1.84H28.4503L26.5503 9H25.2503L24.1303 5.55L23.9203 4.76H23.8403L23.6303 5.55L22.5103 9H21.2103L19.2303 1.84Z" fill="#63666A"/>
<path d="M57.6321 1.72727H59.5284L61.5312 6.61364H61.6165L63.6193 1.72727H65.5156V9H64.0241V4.26634H63.9638L62.0817 8.96449H61.0661L59.1839 4.24858H59.1236V9H57.6321V1.72727ZM66.7825 9V1.72727H71.6831V2.99503H68.3201V4.72798H71.4309V5.99574H68.3201V7.73224H71.6973V9H66.7825ZM78.9886 1.72727V9H77.6605L74.4964 4.42259H74.4432V9H72.9055V1.72727H74.255L77.3942 6.30114H77.4581V1.72727H78.9886ZM84.7512 1.72727H86.2889V6.45028C86.2889 6.98059 86.1622 7.4446 85.9089 7.84233C85.658 8.24006 85.3064 8.55019 84.8542 8.77273C84.402 8.9929 83.8753 9.10298 83.274 9.10298C82.6703 9.10298 82.1423 8.9929 81.6902 8.77273C81.238 8.55019 80.8864 8.24006 80.6355 7.84233C80.3845 7.4446 80.2591 6.98059 80.2591 6.45028V1.72727H81.7967V6.31889C81.7967 6.59588 81.8571 6.84209 81.9778 7.05753C82.1009 7.27296 82.2737 7.44223 82.4963 7.56534C82.7188 7.68845 82.978 7.75 83.274 7.75C83.5723 7.75 83.8315 7.68845 84.0517 7.56534C84.2742 7.44223 84.4458 7.27296 84.5666 7.05753C84.6897 6.84209 84.7512 6.59588 84.7512 6.31889V1.72727Z" fill="#717579"/>
</svg>
