<svg width="23" height="24" viewBox="0 0 23 24" fill="none" xmlns="http://www.w3.org/2000/svg">
<path d="M1.64286 24C1.18651 24 0.798611 23.8353 0.479167 23.5059C0.159722 23.1765 0 22.7765 0 22.3059V3.10588C0 2.63529 0.159722 2.23529 0.479167 1.90588C0.798611 1.57647 1.18651 1.41176 1.64286 1.41176H12.0476L10.4048 3.10588H1.64286V22.3059H14.7857V18.3529H16.4286V22.3059C16.4286 22.7765 16.2688 23.1765 15.9494 23.5059C15.63 23.8353 15.2421 24 14.7857 24H1.64286ZM4.38095 19.2V17.5059H12.0476V19.2H4.38095ZM4.38095 15.8118V14.1176H9.85714V15.8118H4.38095ZM14.7857 16.0941L10.4048 11.5765H6.57143V5.92941H10.4048L14.7857 1.41176V16.0941ZM16.4286 13.4965V3.72706C17.4508 4.12235 18.254 4.81882 18.8381 5.81647C19.4222 6.81412 19.7143 7.79294 19.7143 8.75294C19.7143 9.71294 19.3948 10.6635 18.756 11.6047C18.1171 12.5459 17.3413 13.1765 16.4286 13.4965ZM16.4286 17.5059V15.7553C17.7063 15.2847 18.8472 14.4376 19.8512 13.2141C20.8552 11.9906 21.3571 10.5035 21.3571 8.75294C21.3571 7.00235 20.8552 5.5153 19.8512 4.29177C18.8472 3.06824 17.7063 2.22118 16.4286 1.75059V0C18.2905 0.508235 19.8512 1.56706 21.1107 3.17647C22.3702 4.78588 23 6.64471 23 8.75294C23 10.8612 22.3702 12.72 21.1107 14.3294C19.8512 15.9388 18.2905 16.9976 16.4286 17.5059Z" fill="#3871E0"/>
</svg>
