<svg width="360" height="78" viewBox="0 0 360 78" fill="none" xmlns="http://www.w3.org/2000/svg">
<g clip-path="url(#clip0_44_35486)" filter="url(#filter0_dd_44_35486)">
<rect width="360" height="70" transform="translate(0 8)" fill="white"/>
<path d="M18.0524 44.944V46.936H21.4964V48.472H18.0524V50.464H21.8804V52H16.4324V43.408H21.8804V44.944H18.0524ZM24.5247 49.012L22.5087 46.12H24.3687L25.4367 47.752H25.5207L26.5287 46.12H28.4487L26.3847 49.012L28.4487 52H26.6007L25.4967 50.32H25.4127L24.3447 52H22.4847L24.5247 49.012ZM29.1767 46.12H30.6527V46.828H30.7487C30.8927 46.58 31.1167 46.368 31.4207 46.192C31.7247 46.016 32.1007 45.928 32.5487 45.928C32.9247 45.928 33.2807 46.008 33.6167 46.168C33.9607 46.32 34.2607 46.536 34.5167 46.816C34.7807 47.088 34.9887 47.416 35.1407 47.8C35.2927 48.184 35.3687 48.604 35.3687 49.06C35.3687 49.516 35.2927 49.936 35.1407 50.32C34.9887 50.704 34.7807 51.036 34.5167 51.316C34.2607 51.588 33.9607 51.804 33.6167 51.964C33.2807 52.116 32.9247 52.192 32.5487 52.192C32.1007 52.192 31.7247 52.104 31.4207 51.928C31.1167 51.752 30.8927 51.54 30.7487 51.292H30.6527L30.7487 52.132V54.592H29.1767V46.12ZM32.2247 50.74C32.4327 50.74 32.6287 50.7 32.8127 50.62C33.0047 50.54 33.1727 50.428 33.3167 50.284C33.4607 50.14 33.5767 49.964 33.6647 49.756C33.7527 49.548 33.7967 49.316 33.7967 49.06C33.7967 48.804 33.7527 48.572 33.6647 48.364C33.5767 48.156 33.4607 47.98 33.3167 47.836C33.1727 47.692 33.0047 47.58 32.8127 47.5C32.6287 47.42 32.4327 47.38 32.2247 47.38C32.0167 47.38 31.8167 47.42 31.6247 47.5C31.4407 47.572 31.2767 47.68 31.1327 47.824C30.9887 47.968 30.8727 48.144 30.7847 48.352C30.6967 48.56 30.6527 48.796 30.6527 49.06C30.6527 49.324 30.6967 49.56 30.7847 49.768C30.8727 49.976 30.9887 50.152 31.1327 50.296C31.2767 50.44 31.4407 50.552 31.6247 50.632C31.8167 50.704 32.0167 50.74 32.2247 50.74ZM36.256 52V43.408H37.828V52H36.256ZM41.8994 45.928C42.3554 45.928 42.7714 46.008 43.1474 46.168C43.5314 46.32 43.8594 46.536 44.1314 46.816C44.4114 47.088 44.6274 47.416 44.7794 47.8C44.9394 48.184 45.0194 48.604 45.0194 49.06C45.0194 49.516 44.9394 49.936 44.7794 50.32C44.6274 50.704 44.4114 51.036 44.1314 51.316C43.8594 51.588 43.5314 51.804 43.1474 51.964C42.7714 52.116 42.3554 52.192 41.8994 52.192C41.4434 52.192 41.0234 52.116 40.6394 51.964C40.2634 51.804 39.9354 51.588 39.6554 51.316C39.3834 51.036 39.1674 50.704 39.0074 50.32C38.8554 49.936 38.7794 49.516 38.7794 49.06C38.7794 48.604 38.8554 48.184 39.0074 47.8C39.1674 47.416 39.3834 47.088 39.6554 46.816C39.9354 46.536 40.2634 46.32 40.6394 46.168C41.0234 46.008 41.4434 45.928 41.8994 45.928ZM41.8994 50.74C42.0994 50.74 42.2914 50.704 42.4754 50.632C42.6674 50.552 42.8354 50.44 42.9794 50.296C43.1234 50.152 43.2354 49.976 43.3154 49.768C43.4034 49.56 43.4474 49.324 43.4474 49.06C43.4474 48.796 43.4034 48.56 43.3154 48.352C43.2354 48.144 43.1234 47.968 42.9794 47.824C42.8354 47.68 42.6674 47.572 42.4754 47.5C42.2914 47.42 42.0994 47.38 41.8994 47.38C41.6914 47.38 41.4954 47.42 41.3114 47.5C41.1274 47.572 40.9634 47.68 40.8194 47.824C40.6754 47.968 40.5594 48.144 40.4714 48.352C40.3914 48.56 40.3514 48.796 40.3514 49.06C40.3514 49.324 40.3914 49.56 40.4714 49.768C40.5594 49.976 40.6754 50.152 40.8194 50.296C40.9634 50.44 41.1274 50.552 41.3114 50.632C41.4954 50.704 41.6914 50.74 41.8994 50.74ZM45.9122 46.12H47.3882V46.936H47.4842C47.5562 46.792 47.6522 46.66 47.7722 46.54C47.8922 46.42 48.0242 46.316 48.1682 46.228C48.3202 46.14 48.4802 46.072 48.6482 46.024C48.8242 45.976 48.9962 45.952 49.1642 45.952C49.3722 45.952 49.5482 45.972 49.6922 46.012C49.8442 46.052 49.9722 46.104 50.0762 46.168L49.6562 47.596C49.5602 47.548 49.4522 47.512 49.3322 47.488C49.2202 47.456 49.0802 47.44 48.9122 47.44C48.6962 47.44 48.5002 47.484 48.3242 47.572C48.1482 47.652 47.9962 47.768 47.8682 47.92C47.7482 48.072 47.6522 48.252 47.5802 48.46C47.5162 48.66 47.4842 48.88 47.4842 49.12V52H45.9122V46.12ZM56.0037 50.584C55.7317 51.064 55.3637 51.452 54.8997 51.748C54.4437 52.044 53.8837 52.192 53.2197 52.192C52.7717 52.192 52.3557 52.116 51.9717 51.964C51.5957 51.804 51.2677 51.584 50.9877 51.304C50.7077 51.024 50.4877 50.696 50.3277 50.32C50.1757 49.936 50.0997 49.516 50.0997 49.06C50.0997 48.636 50.1757 48.236 50.3277 47.86C50.4797 47.476 50.6917 47.144 50.9637 46.864C51.2357 46.576 51.5557 46.348 51.9237 46.18C52.2997 46.012 52.7117 45.928 53.1597 45.928C53.6317 45.928 54.0517 46.008 54.4197 46.168C54.7877 46.32 55.0957 46.536 55.3437 46.816C55.5917 47.088 55.7797 47.412 55.9077 47.788C56.0357 48.164 56.0997 48.572 56.0997 49.012C56.0997 49.068 56.0997 49.116 56.0997 49.156C56.0917 49.204 56.0877 49.248 56.0877 49.288C56.0797 49.328 56.0757 49.372 56.0757 49.42H51.6477C51.6797 49.66 51.7437 49.868 51.8397 50.044C51.9437 50.212 52.0677 50.356 52.2117 50.476C52.3637 50.588 52.5277 50.672 52.7037 50.728C52.8797 50.776 53.0597 50.8 53.2437 50.8C53.6037 50.8 53.8997 50.72 54.1317 50.56C54.3717 50.392 54.5597 50.184 54.6957 49.936L56.0037 50.584ZM54.5757 48.304C54.5677 48.2 54.5317 48.084 54.4677 47.956C54.4117 47.828 54.3237 47.708 54.2037 47.596C54.0917 47.484 53.9477 47.392 53.7717 47.32C53.6037 47.248 53.3997 47.212 53.1597 47.212C52.8237 47.212 52.5277 47.308 52.2717 47.5C52.0157 47.692 51.8357 47.96 51.7317 48.304H54.5757Z" fill="#205BB1"/>
<path d="M108.999 48.052C108.999 49.252 108.643 50.208 107.931 50.92C107.131 51.768 106.079 52.192 104.775 52.192C103.527 52.192 102.471 51.76 101.607 50.896C100.743 50.032 100.311 48.968 100.311 47.704C100.311 46.44 100.743 45.376 101.607 44.512C102.471 43.648 103.527 43.216 104.775 43.216C105.407 43.216 106.003 43.328 106.563 43.552C107.123 43.776 107.583 44.092 107.943 44.5L107.151 45.292C106.887 44.972 106.543 44.724 106.119 44.548C105.703 44.364 105.255 44.272 104.775 44.272C103.839 44.272 103.047 44.596 102.399 45.244C101.759 45.9 101.439 46.72 101.439 47.704C101.439 48.688 101.759 49.508 102.399 50.164C103.047 50.812 103.839 51.136 104.775 51.136C105.631 51.136 106.343 50.896 106.911 50.416C107.479 49.936 107.807 49.276 107.895 48.436H104.775V47.404H108.939C108.979 47.628 108.999 47.844 108.999 48.052ZM109.754 49.06C109.754 48.156 110.038 47.408 110.606 46.816C111.182 46.224 111.906 45.928 112.778 45.928C113.65 45.928 114.37 46.224 114.938 46.816C115.514 47.408 115.802 48.156 115.802 49.06C115.802 49.972 115.514 50.72 114.938 51.304C114.37 51.896 113.65 52.192 112.778 52.192C111.906 52.192 111.182 51.896 110.606 51.304C110.038 50.712 109.754 49.964 109.754 49.06ZM110.858 49.06C110.858 49.692 111.042 50.204 111.41 50.596C111.778 50.988 112.234 51.184 112.778 51.184C113.322 51.184 113.778 50.988 114.146 50.596C114.514 50.204 114.698 49.692 114.698 49.06C114.698 48.436 114.514 47.928 114.146 47.536C113.77 47.136 113.314 46.936 112.778 46.936C112.242 46.936 111.786 47.136 111.41 47.536C111.042 47.928 110.858 48.436 110.858 49.06Z" fill="#5F6368"/>
<path d="M170.248 49.708C170.248 50.46 169.972 51.064 169.42 51.52C168.86 51.968 168.18 52.192 167.38 52.192C166.668 52.192 166.04 51.984 165.496 51.568C164.952 51.152 164.576 50.584 164.368 49.864L165.424 49.432C165.496 49.688 165.596 49.92 165.724 50.128C165.852 50.336 166 50.516 166.168 50.668C166.344 50.812 166.536 50.928 166.744 51.016C166.952 51.096 167.172 51.136 167.404 51.136C167.908 51.136 168.32 51.008 168.64 50.752C168.96 50.488 169.12 50.14 169.12 49.708C169.12 49.348 168.988 49.04 168.724 48.784C168.476 48.536 168.012 48.296 167.332 48.064C166.644 47.816 166.216 47.648 166.048 47.56C165.136 47.096 164.68 46.412 164.68 45.508C164.68 44.876 164.932 44.336 165.436 43.888C165.948 43.44 166.576 43.216 167.32 43.216C167.976 43.216 168.544 43.384 169.024 43.72C169.504 44.048 169.824 44.46 169.984 44.956L168.952 45.388C168.856 45.068 168.664 44.804 168.376 44.596C168.096 44.38 167.752 44.272 167.344 44.272C166.912 44.272 166.548 44.392 166.252 44.632C165.956 44.856 165.808 45.148 165.808 45.508C165.808 45.804 165.924 46.06 166.156 46.276C166.412 46.492 166.968 46.748 167.824 47.044C168.696 47.34 169.316 47.704 169.684 48.136C170.06 48.56 170.248 49.084 170.248 49.708ZM172.189 50.2C172.189 50.488 172.309 50.728 172.549 50.92C172.797 51.112 173.085 51.208 173.413 51.208C173.877 51.208 174.289 51.036 174.649 50.692C175.017 50.348 175.201 49.944 175.201 49.48C174.857 49.208 174.377 49.072 173.761 49.072C173.313 49.072 172.937 49.18 172.633 49.396C172.337 49.612 172.189 49.88 172.189 50.2ZM173.617 45.928C174.433 45.928 175.077 46.148 175.549 46.588C176.021 47.02 176.257 47.616 176.257 48.376V52H175.201V51.184H175.153C174.697 51.856 174.089 52.192 173.329 52.192C172.681 52.192 172.137 52 171.697 51.616C171.265 51.232 171.049 50.752 171.049 50.176C171.049 49.568 171.277 49.084 171.733 48.724C172.197 48.364 172.813 48.184 173.581 48.184C174.237 48.184 174.777 48.304 175.201 48.544V48.292C175.201 47.908 175.049 47.584 174.745 47.32C174.441 47.048 174.085 46.912 173.677 46.912C173.061 46.912 172.573 47.172 172.213 47.692L171.241 47.08C171.777 46.312 172.569 45.928 173.617 45.928ZM180.241 52H179.137L176.761 46.12H177.961L179.689 50.68H179.713L181.465 46.12H182.641L180.241 52ZM185.826 52.192C184.962 52.192 184.25 51.896 183.69 51.304C183.13 50.712 182.85 49.964 182.85 49.06C182.85 48.164 183.122 47.42 183.666 46.828C184.21 46.228 184.906 45.928 185.754 45.928C186.626 45.928 187.318 46.212 187.83 46.78C188.35 47.34 188.61 48.128 188.61 49.144L188.598 49.264H183.978C183.994 49.84 184.186 50.304 184.554 50.656C184.922 51.008 185.362 51.184 185.874 51.184C186.578 51.184 187.13 50.832 187.53 50.128L188.514 50.608C188.25 51.104 187.882 51.492 187.41 51.772C186.946 52.052 186.418 52.192 185.826 52.192ZM184.062 48.352H187.434C187.402 47.944 187.234 47.608 186.93 47.344C186.634 47.072 186.234 46.936 185.73 46.936C185.314 46.936 184.954 47.064 184.65 47.32C184.354 47.576 184.158 47.92 184.062 48.352ZM192.318 51.184C192.862 51.184 193.306 50.988 193.65 50.596C194.01 50.204 194.19 49.692 194.19 49.06C194.19 48.444 194.01 47.936 193.65 47.536C193.298 47.136 192.854 46.936 192.318 46.936C191.79 46.936 191.346 47.136 190.986 47.536C190.626 47.936 190.446 48.444 190.446 49.06C190.446 49.684 190.626 50.192 190.986 50.584C191.346 50.984 191.79 51.184 192.318 51.184ZM192.138 52.192C191.37 52.192 190.71 51.888 190.158 51.28C189.614 50.664 189.342 49.924 189.342 49.06C189.342 48.196 189.614 47.456 190.158 46.84C190.71 46.232 191.37 45.928 192.138 45.928C192.57 45.928 192.962 46.02 193.314 46.204C193.674 46.388 193.95 46.632 194.142 46.936H194.19L194.142 46.12V43.408H195.246V52H194.19V51.184H194.142C193.95 51.488 193.674 51.732 193.314 51.916C192.962 52.1 192.57 52.192 192.138 52.192Z" fill="#5F6368"/>
<path d="M228.619 52.192C227.347 52.192 226.283 51.764 225.427 50.908C224.579 50.052 224.155 48.984 224.155 47.704C224.155 46.424 224.579 45.36 225.427 44.512C226.275 43.648 227.339 43.216 228.619 43.216C229.915 43.216 230.967 43.684 231.775 44.62L230.983 45.388C230.367 44.644 229.579 44.272 228.619 44.272C227.667 44.272 226.871 44.592 226.231 45.232C225.599 45.864 225.283 46.688 225.283 47.704C225.283 48.72 225.599 49.544 226.231 50.176C226.871 50.816 227.667 51.136 228.619 51.136C229.619 51.136 230.487 50.716 231.223 49.876L232.027 50.656C231.619 51.144 231.119 51.524 230.527 51.796C229.935 52.06 229.299 52.192 228.619 52.192ZM232.555 49.06C232.555 48.156 232.839 47.408 233.407 46.816C233.983 46.224 234.707 45.928 235.579 45.928C236.451 45.928 237.171 46.224 237.739 46.816C238.315 47.408 238.603 48.156 238.603 49.06C238.603 49.972 238.315 50.72 237.739 51.304C237.171 51.896 236.451 52.192 235.579 52.192C234.707 52.192 233.983 51.896 233.407 51.304C232.839 50.712 232.555 49.964 232.555 49.06ZM233.659 49.06C233.659 49.692 233.843 50.204 234.211 50.596C234.579 50.988 235.035 51.184 235.579 51.184C236.123 51.184 236.579 50.988 236.947 50.596C237.315 50.204 237.499 49.692 237.499 49.06C237.499 48.436 237.315 47.928 236.947 47.536C236.571 47.136 236.115 46.936 235.579 46.936C235.043 46.936 234.587 47.136 234.211 47.536C233.843 47.928 233.659 48.436 233.659 49.06ZM239.488 46.12H240.544V46.936H240.592C240.76 46.648 241.016 46.408 241.36 46.216C241.712 46.024 242.076 45.928 242.452 45.928C243.172 45.928 243.724 46.136 244.108 46.552C244.5 46.96 244.696 47.544 244.696 48.304V52H243.592V48.376C243.568 47.416 243.084 46.936 242.14 46.936C241.7 46.936 241.332 47.116 241.036 47.476C240.74 47.828 240.592 48.252 240.592 48.748V52H239.488V46.12ZM248.016 52.096C247.536 52.096 247.136 51.948 246.816 51.652C246.504 51.356 246.344 50.944 246.336 50.416V47.128H245.304V46.12H246.336V44.32H247.44V46.12H248.88V47.128H247.44V50.056C247.44 50.448 247.516 50.716 247.668 50.86C247.82 50.996 247.992 51.064 248.184 51.064C248.272 51.064 248.356 51.056 248.436 51.04C248.524 51.016 248.604 50.988 248.676 50.956L249.024 51.94C248.736 52.044 248.4 52.096 248.016 52.096ZM251.034 52H249.93V46.12H250.986V47.08H251.034C251.146 46.768 251.374 46.504 251.718 46.288C252.07 46.064 252.414 45.952 252.75 45.952C253.07 45.952 253.342 46 253.566 46.096L253.23 47.164C253.094 47.108 252.878 47.08 252.582 47.08C252.166 47.08 251.802 47.248 251.49 47.584C251.186 47.92 251.034 48.312 251.034 48.76V52ZM255.717 44.092C255.717 44.308 255.641 44.492 255.489 44.644C255.337 44.796 255.153 44.872 254.937 44.872C254.721 44.872 254.537 44.796 254.385 44.644C254.233 44.492 254.157 44.308 254.157 44.092C254.157 43.876 254.233 43.692 254.385 43.54C254.537 43.388 254.721 43.312 254.937 43.312C255.153 43.312 255.337 43.388 255.489 43.54C255.641 43.692 255.717 43.876 255.717 44.092ZM255.489 46.12V52H254.385V46.12H255.489ZM260.034 52.192C259.602 52.192 259.206 52.1 258.846 51.916C258.494 51.732 258.222 51.488 258.03 51.184H257.982V52H256.926V43.408H258.03V46.12L257.982 46.936H258.03C258.222 46.632 258.494 46.388 258.846 46.204C259.206 46.02 259.602 45.928 260.034 45.928C260.81 45.928 261.466 46.232 262.002 46.84C262.554 47.456 262.83 48.196 262.83 49.06C262.83 49.932 262.554 50.672 262.002 51.28C261.466 51.888 260.81 52.192 260.034 52.192ZM259.854 51.184C260.382 51.184 260.826 50.984 261.186 50.584C261.546 50.192 261.726 49.684 261.726 49.06C261.726 48.444 261.546 47.936 261.186 47.536C260.826 47.136 260.382 46.936 259.854 46.936C259.318 46.936 258.87 47.136 258.51 47.536C258.158 47.936 257.982 48.444 257.982 49.06C257.982 49.684 258.158 50.196 258.51 50.596C258.87 50.988 259.318 51.184 259.854 51.184ZM268.941 52H267.885V51.184H267.837C267.669 51.472 267.409 51.712 267.057 51.904C266.713 52.096 266.353 52.192 265.977 52.192C265.257 52.192 264.701 51.988 264.309 51.58C263.925 51.164 263.733 50.576 263.733 49.816V46.12H264.837V49.744C264.861 50.704 265.345 51.184 266.289 51.184C266.729 51.184 267.097 51.008 267.393 50.656C267.689 50.296 267.837 49.868 267.837 49.372V46.12H268.941V52ZM272.672 52.096C272.192 52.096 271.792 51.948 271.472 51.652C271.16 51.356 271 50.944 270.992 50.416V47.128H269.96V46.12H270.992V44.32H272.096V46.12H273.536V47.128H272.096V50.056C272.096 50.448 272.172 50.716 272.324 50.86C272.476 50.996 272.648 51.064 272.84 51.064C272.928 51.064 273.012 51.056 273.092 51.04C273.18 51.016 273.26 50.988 273.332 50.956L273.68 51.94C273.392 52.044 273.056 52.096 272.672 52.096ZM277.167 52.192C276.303 52.192 275.591 51.896 275.031 51.304C274.471 50.712 274.191 49.964 274.191 49.06C274.191 48.164 274.463 47.42 275.007 46.828C275.551 46.228 276.247 45.928 277.095 45.928C277.967 45.928 278.659 46.212 279.171 46.78C279.691 47.34 279.951 48.128 279.951 49.144L279.939 49.264H275.319C275.335 49.84 275.527 50.304 275.895 50.656C276.263 51.008 276.703 51.184 277.215 51.184C277.919 51.184 278.471 50.832 278.871 50.128L279.855 50.608C279.591 51.104 279.223 51.492 278.751 51.772C278.287 52.052 277.759 52.192 277.167 52.192ZM275.403 48.352H278.775C278.743 47.944 278.575 47.608 278.271 47.344C277.975 47.072 277.575 46.936 277.071 46.936C276.655 46.936 276.295 47.064 275.991 47.32C275.695 47.576 275.499 47.92 275.403 48.352Z" fill="#5F6368"/>
<path d="M306.073 52.192C305.121 52.192 304.353 51.88 303.769 51.256C303.185 50.64 302.893 49.824 302.893 48.808V43.408H303.997V48.856C303.997 49.56 304.181 50.116 304.549 50.524C304.917 50.932 305.425 51.136 306.073 51.136C306.721 51.136 307.229 50.932 307.597 50.524C307.965 50.116 308.149 49.56 308.149 48.856V43.408H309.253V48.808C309.253 49.848 308.965 50.672 308.389 51.28C307.813 51.888 307.041 52.192 306.073 52.192ZM313.472 51.184C314 51.184 314.444 50.984 314.804 50.584C315.164 50.192 315.344 49.684 315.344 49.06C315.344 48.444 315.164 47.936 314.804 47.536C314.444 47.136 314 46.936 313.472 46.936C312.936 46.936 312.488 47.136 312.128 47.536C311.776 47.936 311.6 48.444 311.6 49.06C311.6 49.684 311.776 50.196 312.128 50.596C312.488 50.988 312.936 51.184 313.472 51.184ZM313.652 52.192C313.22 52.192 312.824 52.1 312.464 51.916C312.112 51.732 311.84 51.488 311.648 51.184H311.6L311.648 52V54.592H310.544V46.12H311.6V46.936H311.648C311.84 46.632 312.112 46.388 312.464 46.204C312.824 46.02 313.22 45.928 313.652 45.928C314.428 45.928 315.084 46.232 315.62 46.84C316.172 47.456 316.448 48.196 316.448 49.06C316.448 49.932 316.172 50.672 315.62 51.28C315.084 51.888 314.428 52.192 313.652 52.192ZM320.099 51.184C320.643 51.184 321.087 50.988 321.431 50.596C321.791 50.204 321.971 49.692 321.971 49.06C321.971 48.444 321.791 47.936 321.431 47.536C321.079 47.136 320.635 46.936 320.099 46.936C319.571 46.936 319.127 47.136 318.767 47.536C318.407 47.936 318.227 48.444 318.227 49.06C318.227 49.684 318.407 50.192 318.767 50.584C319.127 50.984 319.571 51.184 320.099 51.184ZM319.919 52.192C319.151 52.192 318.491 51.888 317.939 51.28C317.395 50.664 317.123 49.924 317.123 49.06C317.123 48.196 317.395 47.456 317.939 46.84C318.491 46.232 319.151 45.928 319.919 45.928C320.351 45.928 320.743 46.02 321.095 46.204C321.455 46.388 321.731 46.632 321.923 46.936H321.971L321.923 46.12V43.408H323.027V52H321.971V51.184H321.923C321.731 51.488 321.455 51.732 321.095 51.916C320.743 52.1 320.351 52.192 319.919 52.192ZM325.119 50.2C325.119 50.488 325.239 50.728 325.479 50.92C325.727 51.112 326.015 51.208 326.343 51.208C326.807 51.208 327.219 51.036 327.579 50.692C327.947 50.348 328.131 49.944 328.131 49.48C327.787 49.208 327.307 49.072 326.691 49.072C326.243 49.072 325.867 49.18 325.563 49.396C325.267 49.612 325.119 49.88 325.119 50.2ZM326.547 45.928C327.363 45.928 328.007 46.148 328.479 46.588C328.951 47.02 329.187 47.616 329.187 48.376V52H328.131V51.184H328.083C327.627 51.856 327.019 52.192 326.259 52.192C325.611 52.192 325.067 52 324.627 51.616C324.195 51.232 323.979 50.752 323.979 50.176C323.979 49.568 324.207 49.084 324.663 48.724C325.127 48.364 325.743 48.184 326.511 48.184C327.167 48.184 327.707 48.304 328.131 48.544V48.292C328.131 47.908 327.979 47.584 327.675 47.32C327.371 47.048 327.015 46.912 326.607 46.912C325.991 46.912 325.503 47.172 325.143 47.692L324.171 47.08C324.707 46.312 325.499 45.928 326.547 45.928ZM332.643 52.096C332.163 52.096 331.763 51.948 331.443 51.652C331.131 51.356 330.971 50.944 330.963 50.416V47.128H329.931V46.12H330.963V44.32H332.067V46.12H333.507V47.128H332.067V50.056C332.067 50.448 332.143 50.716 332.295 50.86C332.447 50.996 332.619 51.064 332.811 51.064C332.899 51.064 332.983 51.056 333.063 51.04C333.151 51.016 333.231 50.988 333.303 50.956L333.651 51.94C333.363 52.044 333.027 52.096 332.643 52.096ZM337.138 52.192C336.274 52.192 335.562 51.896 335.002 51.304C334.442 50.712 334.162 49.964 334.162 49.06C334.162 48.164 334.434 47.42 334.978 46.828C335.522 46.228 336.218 45.928 337.066 45.928C337.938 45.928 338.63 46.212 339.142 46.78C339.662 47.34 339.922 48.128 339.922 49.144L339.91 49.264H335.29C335.306 49.84 335.498 50.304 335.866 50.656C336.234 51.008 336.674 51.184 337.186 51.184C337.89 51.184 338.442 50.832 338.842 50.128L339.826 50.608C339.562 51.104 339.194 51.492 338.722 51.772C338.258 52.052 337.73 52.192 337.138 52.192ZM335.374 48.352H338.746C338.714 47.944 338.546 47.608 338.242 47.344C337.946 47.072 337.546 46.936 337.042 46.936C336.626 46.936 336.266 47.064 335.962 47.32C335.666 47.576 335.47 47.92 335.374 48.352ZM345.49 50.368C345.49 50.88 345.266 51.312 344.818 51.664C344.37 52.016 343.806 52.192 343.126 52.192C342.534 52.192 342.014 52.04 341.566 51.736C341.118 51.424 340.798 51.016 340.606 50.512L341.59 50.092C341.734 50.444 341.942 50.72 342.214 50.92C342.494 51.112 342.798 51.208 343.126 51.208C343.478 51.208 343.77 51.132 344.002 50.98C344.242 50.828 344.362 50.648 344.362 50.44C344.362 50.064 344.074 49.788 343.498 49.612L342.49 49.36C341.346 49.072 340.774 48.52 340.774 47.704C340.774 47.168 340.99 46.74 341.422 46.42C341.862 46.092 342.422 45.928 343.102 45.928C343.622 45.928 344.09 46.052 344.506 46.3C344.93 46.548 345.226 46.88 345.394 47.296L344.41 47.704C344.298 47.456 344.114 47.264 343.858 47.128C343.61 46.984 343.33 46.912 343.018 46.912C342.73 46.912 342.47 46.984 342.238 47.128C342.014 47.272 341.902 47.448 341.902 47.656C341.902 47.992 342.218 48.232 342.85 48.376L343.738 48.604C344.906 48.892 345.49 49.48 345.49 50.368Z" fill="#5F6368"/>
<rect width="360" height="14" transform="translate(0 64)" fill="white"/>
<rect x="148" y="72" width="64" height="2" rx="1" fill="#949494"/>
</g>
<path d="M252.014 18C250.703 18 249.404 18.2586 248.193 18.7612C246.981 19.2637 245.88 20.0003 244.953 20.9288C243.08 22.8041 242.028 25.3475 242.028 27.9996C242.019 30.3086 242.818 32.5479 244.285 34.3293L242.288 36.3292C242.149 36.4698 242.055 36.6484 242.018 36.8424C241.981 37.0363 242.002 37.237 242.078 37.4191C242.161 37.5991 242.295 37.7502 242.464 37.8535C242.633 37.9568 242.829 38.0075 243.027 37.9991H252.014C254.663 37.9991 257.202 36.9456 259.075 35.0703C260.948 33.195 262 30.6516 262 27.9996C262 25.3475 260.948 22.8041 259.075 20.9288C257.202 19.0535 254.663 18 252.014 18V18ZM252.014 35.9992H245.433L246.362 35.0692C246.548 34.8819 246.652 34.6285 246.652 34.3643C246.652 34.1001 246.548 33.8467 246.362 33.6593C245.054 32.3514 244.24 30.63 244.058 28.7883C243.876 26.9467 244.337 25.0987 245.363 23.5593C246.389 22.0199 247.916 20.8842 249.684 20.3459C251.452 19.8075 253.352 19.8997 255.06 20.6068C256.768 21.3139 258.178 22.5921 259.051 24.2236C259.923 25.8552 260.203 27.7391 259.844 29.5545C259.485 31.3699 258.508 33.0044 257.08 34.1795C255.653 35.3547 253.862 35.9977 252.014 35.9992V35.9992ZM255.01 26.9996H253.013V24.9997C253.013 24.7345 252.907 24.4801 252.72 24.2926C252.533 24.1051 252.279 23.9997 252.014 23.9997C251.749 23.9997 251.495 24.1051 251.308 24.2926C251.121 24.4801 251.015 24.7345 251.015 24.9997V26.9996H249.018C248.753 26.9996 248.499 27.105 248.312 27.2925C248.125 27.48 248.02 27.7344 248.02 27.9996C248.02 28.2648 248.125 28.5191 248.312 28.7066C248.499 28.8942 248.753 28.9995 249.018 28.9995H251.015V30.9994C251.015 31.2646 251.121 31.519 251.308 31.7065C251.495 31.894 251.749 31.9994 252.014 31.9994C252.279 31.9994 252.533 31.894 252.72 31.7065C252.907 31.519 253.013 31.2646 253.013 30.9994V28.9995H255.01C255.275 28.9995 255.529 28.8942 255.716 28.7066C255.903 28.5191 256.008 28.2648 256.008 27.9996C256.008 27.7344 255.903 27.48 255.716 27.2925C255.529 27.105 255.275 26.9996 255.01 26.9996Z" fill="#857D7D"/>
<path d="M173 39V20.6552C173 20.2138 173.161 19.8276 173.482 19.4966C173.804 19.1655 174.179 19 174.607 19H186.393C186.821 19 187.196 19.1655 187.518 19.4966C187.839 19.8276 188 20.2138 188 20.6552V39L180.5 35.6897L173 39ZM174.607 36.4897L180.5 33.9241L186.393 36.4897V20.6552H174.607V36.4897ZM174.607 20.6552H186.393H180.5H174.607Z" fill="#857D7D"/>
<path d="M321.611 36.0952H325.389C325.389 37.1429 324.539 38 323.5 38C322.461 38 321.611 37.1429 321.611 36.0952ZM332 34.1905V35.1429H315V34.1905L316.889 32.2857V26.5714C316.889 23.619 318.778 21.0476 321.611 20.1905V19.9048C321.611 18.8571 322.461 18 323.5 18C324.539 18 325.389 18.8571 325.389 19.9048V20.1905C328.222 21.0476 330.111 23.619 330.111 26.5714V32.2857L332 34.1905ZM328.222 26.5714C328.222 23.9048 326.144 21.8095 323.5 21.8095C320.856 21.8095 318.778 23.9048 318.778 26.5714V33.2381H328.222V26.5714Z" fill="#857D7D"/>
<path d="M106.325 37.3125V30.2187L107.75 24.9687C107.783 24.8229 107.85 24.6979 107.95 24.5937C108.05 24.4896 108.192 24.4375 108.375 24.4375H115.95C116.133 24.4375 116.271 24.4844 116.362 24.5781C116.454 24.6719 116.525 24.8021 116.575 24.9687L118 30.2187V37.3125C118 37.5 117.946 37.6615 117.837 37.7969C117.729 37.9323 117.6 38 117.45 38H116.9C116.75 38 116.621 37.9323 116.513 37.7969C116.404 37.6615 116.35 37.5 116.35 37.3125V35.9063H107.975V37.3125C107.975 37.5 107.921 37.6615 107.812 37.7969C107.704 37.9323 107.575 38 107.425 38H106.875C106.725 38 106.596 37.9323 106.488 37.7969C106.379 37.6615 106.325 37.5 106.325 37.3125V37.3125ZM107.65 29.2812H116.675L115.725 25.6875H108.6L107.65 29.2812ZM107.325 30.5312V34.6563V30.5312ZM109 33.8437C109.283 33.8437 109.517 33.7292 109.7 33.5C109.883 33.2708 109.975 32.9792 109.975 32.625C109.975 32.2708 109.883 31.9792 109.7 31.75C109.517 31.5208 109.283 31.4063 109 31.4063C108.717 31.4063 108.483 31.5208 108.3 31.75C108.117 31.9792 108.025 32.2708 108.025 32.625C108.025 32.9792 108.117 33.2708 108.3 33.5C108.483 33.7292 108.717 33.8437 109 33.8437ZM115.325 33.8437C115.608 33.8437 115.842 33.7292 116.025 33.5C116.208 33.2708 116.3 32.9792 116.3 32.625C116.3 32.2708 116.208 31.9792 116.025 31.75C115.842 31.5208 115.608 31.4063 115.325 31.4063C115.042 31.4063 114.808 31.5208 114.625 31.75C114.442 31.9792 114.35 32.2708 114.35 32.625C114.35 32.9792 114.442 33.2708 114.625 33.5C114.808 33.7292 115.042 33.8437 115.325 33.8437ZM100.1 38V37.3438L101.525 35.5625C100.575 35.5625 99.75 35.2031 99.05 34.4844C98.35 33.7656 98 32.8438 98 31.7188V21.4688C98 20.0938 98.4333 19.1719 99.3 18.7031C100.167 18.2344 101.883 18 104.45 18C106.833 18 108.504 18.2552 109.462 18.7656C110.421 19.276 110.9 20.1771 110.9 21.4688V23.5H109.4V21.0937H99.5V29.5H105.575V38H100.1ZM100.775 32.9375C101.058 32.9375 101.292 32.8229 101.475 32.5938C101.658 32.3646 101.75 32.0729 101.75 31.7188C101.75 31.3646 101.658 31.0729 101.475 30.8437C101.292 30.6146 101.058 30.5 100.775 30.5C100.492 30.5 100.258 30.6146 100.075 30.8437C99.8917 31.0729 99.8 31.3646 99.8 31.7188C99.8 32.0729 99.8917 32.3646 100.075 32.5938C100.258 32.8229 100.492 32.9375 100.775 32.9375ZM107.325 34.6563H117V30.5312H107.325V34.6563Z" fill="#857D7D"/>
<path d="M36 27.75C36.4833 27.75 36.8958 27.5792 37.2375 27.2375C37.5792 26.8958 37.75 26.4833 37.75 26C37.75 25.5167 37.5792 25.1042 37.2375 24.7625C36.8958 24.4208 36.4833 24.25 36 24.25C35.5167 24.25 35.1042 24.4208 34.7625 24.7625C34.4208 25.1042 34.25 25.5167 34.25 26C34.25 26.4833 34.4208 26.8958 34.7625 27.2375C35.1042 27.5792 35.5167 27.75 36 27.75ZM36 36.025C38.2167 34.0083 39.8542 32.1792 40.9125 30.5375C41.9708 28.8958 42.5 27.45 42.5 26.2C42.5 24.2333 41.8708 22.625 40.6125 21.375C39.3542 20.125 37.8167 19.5 36 19.5C34.1833 19.5 32.6458 20.125 31.3875 21.375C30.1292 22.625 29.5 24.2333 29.5 26.2C29.5 27.45 30.0417 28.8958 31.125 30.5375C32.2083 32.1792 33.8333 34.0083 36 36.025ZM36 38C33.3167 35.7167 31.3125 33.5958 29.9875 31.6375C28.6625 29.6792 28 27.8667 28 26.2C28 23.7 28.8042 21.7083 30.4125 20.225C32.0208 18.7417 33.8833 18 36 18C38.1167 18 39.9792 18.7417 41.5875 20.225C43.1958 21.7083 44 23.7 44 26.2C44 27.8667 43.3375 29.6792 42.0125 31.6375C40.6875 33.5958 38.6833 35.7167 36 38Z" fill="#0E56C8"/>
<rect x="9" y="15" width="55" height="25" rx="12.5" fill="#4285F4" fill-opacity="0.3"/>
<defs>
<filter id="filter0_dd_44_35486" x="-11" y="0.75" width="382" height="92" filterUnits="userSpaceOnUse" color-interpolation-filters="sRGB">
<feFlood flood-opacity="0" result="BackgroundImageFix"/>
<feColorMatrix in="SourceAlpha" type="matrix" values="0 0 0 0 0 0 0 0 0 0 0 0 0 0 0 0 0 0 127 0" result="hardAlpha"/>
<feOffset dy="3.75"/>
<feGaussianBlur stdDeviation="5.5"/>
<feColorMatrix type="matrix" values="0 0 0 0 0 0 0 0 0 0 0 0 0 0 0 0 0 0 0.19 0"/>
<feBlend mode="normal" in2="BackgroundImageFix" result="effect1_dropShadow_44_35486"/>
<feColorMatrix in="SourceAlpha" type="matrix" values="0 0 0 0 0 0 0 0 0 0 0 0 0 0 0 0 0 0 127 0" result="hardAlpha"/>
<feOffset dy="0.5"/>
<feGaussianBlur stdDeviation="2.5"/>
<feColorMatrix type="matrix" values="0 0 0 0 0 0 0 0 0 0 0 0 0 0 0 0 0 0 0.039 0"/>
<feBlend mode="normal" in2="effect1_dropShadow_44_35486" result="effect2_dropShadow_44_35486"/>
<feBlend mode="normal" in="SourceGraphic" in2="effect2_dropShadow_44_35486" result="shape"/>
</filter>
<clipPath id="clip0_44_35486">
<rect width="360" height="70" fill="white" transform="translate(0 8)"/>
</clipPath>
</defs>
</svg>
