<svg width="74" height="44" viewBox="0 0 74 44" fill="none" xmlns="http://www.w3.org/2000/svg">
<g filter="url(#filter0_d_44_35467)">
<path d="M6 20C6 11.1634 13.1634 4 22 4H52C60.8366 4 68 11.1634 68 20C68 28.8366 60.8366 36 52 36H22C13.1634 36 6 28.8366 6 20Z" fill="white"/>
</g>
<path d="M43.132 20.052C43.132 21.252 42.776 22.208 42.064 22.92C41.264 23.768 40.212 24.192 38.908 24.192C37.66 24.192 36.604 23.76 35.74 22.896C34.876 22.032 34.444 20.968 34.444 19.704C34.444 18.44 34.876 17.376 35.74 16.512C36.604 15.648 37.66 15.216 38.908 15.216C39.54 15.216 40.136 15.328 40.696 15.552C41.256 15.776 41.716 16.092 42.076 16.5L41.284 17.292C41.02 16.972 40.676 16.724 40.252 16.548C39.836 16.364 39.388 16.272 38.908 16.272C37.972 16.272 37.18 16.596 36.532 17.244C35.892 17.9 35.572 18.72 35.572 19.704C35.572 20.688 35.892 21.508 36.532 22.164C37.18 22.812 37.972 23.136 38.908 23.136C39.764 23.136 40.476 22.896 41.044 22.416C41.612 21.936 41.94 21.276 42.028 20.436H38.908V19.404H43.072C43.112 19.628 43.132 19.844 43.132 20.052ZM44.9096 22.2C44.9096 22.488 45.0296 22.728 45.2696 22.92C45.5176 23.112 45.8056 23.208 46.1336 23.208C46.5976 23.208 47.0096 23.036 47.3696 22.692C47.7376 22.348 47.9216 21.944 47.9216 21.48C47.5776 21.208 47.0976 21.072 46.4816 21.072C46.0336 21.072 45.6576 21.18 45.3536 21.396C45.0576 21.612 44.9096 21.88 44.9096 22.2ZM46.3376 17.928C47.1536 17.928 47.7976 18.148 48.2696 18.588C48.7416 19.02 48.9776 19.616 48.9776 20.376V24H47.9216V23.184H47.8736C47.4176 23.856 46.8096 24.192 46.0496 24.192C45.4016 24.192 44.8576 24 44.4176 23.616C43.9856 23.232 43.7696 22.752 43.7696 22.176C43.7696 21.568 43.9976 21.084 44.4536 20.724C44.9176 20.364 45.5336 20.184 46.3016 20.184C46.9576 20.184 47.4976 20.304 47.9216 20.544V20.292C47.9216 19.908 47.7696 19.584 47.4656 19.32C47.1616 19.048 46.8056 18.912 46.3976 18.912C45.7816 18.912 45.2936 19.172 44.9336 19.692L43.9616 19.08C44.4976 18.312 45.2896 17.928 46.3376 17.928ZM54.6642 22.368C54.6642 22.88 54.4402 23.312 53.9922 23.664C53.5442 24.016 52.9802 24.192 52.3002 24.192C51.7082 24.192 51.1882 24.04 50.7402 23.736C50.2922 23.424 49.9722 23.016 49.7802 22.512L50.7642 22.092C50.9082 22.444 51.1162 22.72 51.3882 22.92C51.6682 23.112 51.9722 23.208 52.3002 23.208C52.6522 23.208 52.9442 23.132 53.1762 22.98C53.4162 22.828 53.5362 22.648 53.5362 22.44C53.5362 22.064 53.2482 21.788 52.6722 21.612L51.6642 21.36C50.5202 21.072 49.9482 20.52 49.9482 19.704C49.9482 19.168 50.1642 18.74 50.5962 18.42C51.0362 18.092 51.5962 17.928 52.2762 17.928C52.7962 17.928 53.2642 18.052 53.6802 18.3C54.1042 18.548 54.4002 18.88 54.5682 19.296L53.5842 19.704C53.4722 19.456 53.2882 19.264 53.0322 19.128C52.7842 18.984 52.5042 18.912 52.1922 18.912C51.9042 18.912 51.6442 18.984 51.4122 19.128C51.1882 19.272 51.0762 19.448 51.0762 19.656C51.0762 19.992 51.3922 20.232 52.0242 20.376L52.9122 20.604C54.0802 20.892 54.6642 21.48 54.6642 22.368Z" fill="#3B4043"/>
<path d="M27.3806 16.3961L27.3891 16.3881L24.2327 13.4014L23.3333 14.2525L25.1236 15.9465C24.3261 16.2356 23.7576 16.9581 23.7576 17.8172C23.7576 18.9252 24.7079 19.8244 25.8788 19.8244C26.1842 19.8244 26.4642 19.7601 26.7273 19.6558V25.4444C26.7273 25.886 26.3455 26.2473 25.8788 26.2473C25.4121 26.2473 25.0303 25.886 25.0303 25.4444V21.8315C25.0303 20.9484 24.2667 20.2258 23.3333 20.2258H22.4848V14.6057C22.4848 13.7226 21.7212 13 20.7879 13H15.697C14.7636 13 14 13.7226 14 14.6057V27.4516H22.4848V21.4301H23.7576V25.4444C23.7576 26.5524 24.7079 27.4516 25.8788 27.4516C27.0497 27.4516 28 26.5524 28 25.4444V17.8172C28 17.2632 27.7624 16.7574 27.3806 16.3961ZM20.7879 18.6201H15.697V14.6057H20.7879V18.6201ZM25.8788 18.6201C25.4121 18.6201 25.0303 18.2588 25.0303 17.8172C25.0303 17.3756 25.4121 17.0143 25.8788 17.0143C26.3455 17.0143 26.7273 17.3756 26.7273 17.8172C26.7273 18.2588 26.3455 18.6201 25.8788 18.6201Z" fill="#3B4043"/>
<defs>
<filter id="filter0_d_44_35467" x="0" y="0" width="74" height="44" filterUnits="userSpaceOnUse" color-interpolation-filters="sRGB">
<feFlood flood-opacity="0" result="BackgroundImageFix"/>
<feColorMatrix in="SourceAlpha" type="matrix" values="0 0 0 0 0 0 0 0 0 0 0 0 0 0 0 0 0 0 127 0" result="hardAlpha"/>
<feOffset dy="2"/>
<feGaussianBlur stdDeviation="3"/>
<feComposite in2="hardAlpha" operator="out"/>
<feColorMatrix type="matrix" values="0 0 0 0 0 0 0 0 0 0 0 0 0 0 0 0 0 0 0.1 0"/>
<feBlend mode="normal" in2="BackgroundImageFix" result="effect1_dropShadow_44_35467"/>
<feBlend mode="normal" in="SourceGraphic" in2="effect1_dropShadow_44_35467" result="shape"/>
</filter>
</defs>
</svg>
