<svg width="17" height="25" viewBox="0 0 17 25" fill="none" xmlns="http://www.w3.org/2000/svg">
<path d="M11.069 0.397399C10.2589 0.140544 9.39101 0 8.49417 0C5.87596 0 3.5326 1.18735 1.96553 3.05804L5.99168 6.46016L11.069 0.397399Z" fill="#1A73E8"/>
<path d="M1.98879 3.05643C0.702776 4.5966 -0.0016786 6.54571 3.00366e-06 8.55908C3.00366e-06 10.1672 0.317056 11.4751 0.840675 12.6425L6 6.45683L1.98879 3.05643Z" fill="#EA4335"/>
<path d="M8.49178 5.30519C9.11187 5.30576 9.71888 5.48478 10.2413 5.82116C10.7638 6.15754 11.1799 6.63728 11.4407 7.20387C11.7015 7.77046 11.7962 8.40032 11.7135 9.01927C11.6308 9.63821 11.3742 10.2205 10.9739 10.6975L16.0345 4.63661C14.9958 2.62104 13.205 1.10325 11.0557 0.416779L6 6.47763C6.30463 6.11021 6.68574 5.81473 7.11634 5.61212C7.54694 5.40951 8.01651 5.30473 8.49178 5.30519Z" fill="#4285F4"/>
<path d="M8.48513 11.8381C6.69213 11.8381 5.23561 10.3701 5.23561 8.5629C5.23351 7.79342 5.50268 7.0482 5.99511 6.46017L0.827606 12.6472C1.71209 14.6192 3.17822 16.2035 4.68761 18.1996L10.9655 10.6802C10.6605 11.0434 10.2806 11.3352 9.85218 11.5352C9.42378 11.7352 8.95725 11.8386 8.48513 11.8381Z" fill="#FBBC04"/>
<path d="M10.8496 20.2582C13.6912 15.7914 17 13.7614 17 8.56783C17 7.14347 16.6532 5.80148 16.0416 4.61935L4.68965 18.2089C5.17128 18.8436 5.65772 19.517 6.12971 20.2631C7.85393 22.9471 7.37712 24.5555 8.48968 24.5555C9.60223 24.5555 9.12542 22.9422 10.8496 20.2582Z" fill="#34A853"/>
</svg>
