<svg width="90" height="44" viewBox="0 0 90 44" fill="none" xmlns="http://www.w3.org/2000/svg">
<g filter="url(#filter0_d_44_35471)">
<path d="M6 20C6 11.1634 13.1634 4 22 4H68C76.8366 4 84 11.1634 84 20C84 28.8366 76.8366 36 68 36H22C13.1634 36 6 28.8366 6 20Z" fill="white"/>
</g>
<path d="M39.908 25.192C38.636 25.192 37.572 24.764 36.716 23.908C35.868 23.052 35.444 21.984 35.444 20.704C35.444 19.424 35.868 18.36 36.716 17.512C37.564 16.648 38.628 16.216 39.908 16.216C41.204 16.216 42.256 16.684 43.064 17.62L42.272 18.388C41.656 17.644 40.868 17.272 39.908 17.272C38.956 17.272 38.16 17.592 37.52 18.232C36.888 18.864 36.572 19.688 36.572 20.704C36.572 21.72 36.888 22.544 37.52 23.176C38.16 23.816 38.956 24.136 39.908 24.136C40.908 24.136 41.776 23.716 42.512 22.876L43.316 23.656C42.908 24.144 42.408 24.524 41.816 24.796C41.224 25.06 40.588 25.192 39.908 25.192ZM43.8438 22.06C43.8438 21.156 44.1278 20.408 44.6958 19.816C45.2718 19.224 45.9958 18.928 46.8678 18.928C47.7398 18.928 48.4598 19.224 49.0278 19.816C49.6038 20.408 49.8918 21.156 49.8918 22.06C49.8918 22.972 49.6038 23.72 49.0278 24.304C48.4598 24.896 47.7398 25.192 46.8678 25.192C45.9958 25.192 45.2718 24.896 44.6958 24.304C44.1278 23.712 43.8438 22.964 43.8438 22.06ZM44.9478 22.06C44.9478 22.692 45.1318 23.204 45.4998 23.596C45.8678 23.988 46.3238 24.184 46.8678 24.184C47.4118 24.184 47.8678 23.988 48.2358 23.596C48.6038 23.204 48.7878 22.692 48.7878 22.06C48.7878 21.436 48.6038 20.928 48.2358 20.536C47.8598 20.136 47.4038 19.936 46.8678 19.936C46.3318 19.936 45.8758 20.136 45.4998 20.536C45.1318 20.928 44.9478 21.436 44.9478 22.06ZM52.5429 19.12H55.1829V18.268C55.1829 17.684 55.3669 17.212 55.7349 16.852C56.1109 16.492 56.5909 16.312 57.1749 16.312C57.5749 16.312 57.9029 16.38 58.1589 16.516L57.8589 17.488C57.6669 17.392 57.4509 17.344 57.2109 17.344C56.9389 17.344 56.7149 17.44 56.5389 17.632C56.3709 17.816 56.2869 18.064 56.2869 18.376V19.12H57.8229V20.128H56.2869V25H55.1829V20.128H52.5429V25H51.4389V20.128H50.3349V19.12H51.4389V18.268C51.4389 17.684 51.6229 17.212 51.9909 16.852C52.3669 16.492 52.8469 16.312 53.4309 16.312C53.8309 16.312 54.1589 16.38 54.4149 16.516L54.1149 17.488C53.9229 17.392 53.7069 17.344 53.4669 17.344C53.1949 17.344 52.9709 17.44 52.7949 17.632C52.6269 17.816 52.5429 18.064 52.5429 18.376V19.12ZM61.1518 25.192C60.2878 25.192 59.5758 24.896 59.0158 24.304C58.4558 23.712 58.1758 22.964 58.1758 22.06C58.1758 21.164 58.4478 20.42 58.9918 19.828C59.5358 19.228 60.2318 18.928 61.0798 18.928C61.9518 18.928 62.6438 19.212 63.1558 19.78C63.6758 20.34 63.9358 21.128 63.9358 22.144L63.9238 22.264H59.3038C59.3198 22.84 59.5118 23.304 59.8798 23.656C60.2478 24.008 60.6878 24.184 61.1998 24.184C61.9038 24.184 62.4558 23.832 62.8558 23.128L63.8398 23.608C63.5758 24.104 63.2078 24.492 62.7358 24.772C62.2718 25.052 61.7438 25.192 61.1518 25.192ZM59.3878 21.352H62.7598C62.7278 20.944 62.5598 20.608 62.2558 20.344C61.9598 20.072 61.5598 19.936 61.0558 19.936C60.6398 19.936 60.2798 20.064 59.9758 20.32C59.6798 20.576 59.4838 20.92 59.3878 21.352ZM67.644 25.192C66.78 25.192 66.068 24.896 65.508 24.304C64.948 23.712 64.668 22.964 64.668 22.06C64.668 21.164 64.94 20.42 65.484 19.828C66.028 19.228 66.724 18.928 67.572 18.928C68.444 18.928 69.136 19.212 69.648 19.78C70.168 20.34 70.428 21.128 70.428 22.144L70.416 22.264H65.796C65.812 22.84 66.004 23.304 66.372 23.656C66.74 24.008 67.18 24.184 67.692 24.184C68.396 24.184 68.948 23.832 69.348 23.128L70.332 23.608C70.068 24.104 69.7 24.492 69.228 24.772C68.764 25.052 68.236 25.192 67.644 25.192ZM65.88 21.352H69.252C69.22 20.944 69.052 20.608 68.748 20.344C68.452 20.072 68.052 19.936 67.548 19.936C67.132 19.936 66.772 20.064 66.468 20.32C66.172 20.576 65.976 20.92 65.88 21.352Z" fill="#3B4043"/>
<path d="M20.25 25.5C18.8 25.5 17.5625 24.9875 16.5375 23.9625C15.5125 22.9375 15 21.7 15 20.25V15.75C15 15.3375 15.147 14.9842 15.441 14.6902C15.7345 14.3967 16.0875 14.25 16.5 14.25H25.875C26.6 14.25 27.2188 14.5063 27.7313 15.0188C28.2438 15.5313 28.5 16.15 28.5 16.875C28.5 17.6 28.2438 18.2188 27.7313 18.7313C27.2188 19.2438 26.6 19.5 25.875 19.5H25.5V20.25C25.5 21.7 24.9875 22.9375 23.9625 23.9625C22.9375 24.9875 21.7 25.5 20.25 25.5ZM16.5 19.5H24V15.75H16.5V19.5ZM20.25 24C21.2875 24 22.172 23.6342 22.9035 22.9028C23.6345 22.1717 24 21.2875 24 20.25V19.5H16.5V20.25C16.5 21.2875 16.8657 22.1717 17.5972 22.9028C18.3282 23.6342 19.2125 24 20.25 24ZM25.5 18H25.875C26.1875 18 26.453 17.8905 26.6715 17.6715C26.8905 17.453 27 17.1875 27 16.875C27 16.5625 26.8905 16.297 26.6715 16.0785C26.453 15.8595 26.1875 15.75 25.875 15.75H25.5V18ZM15 27.75V26.25H27V27.75H15Z" fill="#3B4043"/>
<defs>
<filter id="filter0_d_44_35471" x="0" y="0" width="90" height="44" filterUnits="userSpaceOnUse" color-interpolation-filters="sRGB">
<feFlood flood-opacity="0" result="BackgroundImageFix"/>
<feColorMatrix in="SourceAlpha" type="matrix" values="0 0 0 0 0 0 0 0 0 0 0 0 0 0 0 0 0 0 127 0" result="hardAlpha"/>
<feOffset dy="2"/>
<feGaussianBlur stdDeviation="3"/>
<feComposite in2="hardAlpha" operator="out"/>
<feColorMatrix type="matrix" values="0 0 0 0 0 0 0 0 0 0 0 0 0 0 0 0 0 0 0.1 0"/>
<feBlend mode="normal" in2="BackgroundImageFix" result="effect1_dropShadow_44_35471"/>
<feBlend mode="normal" in="SourceGraphic" in2="effect1_dropShadow_44_35471" result="shape"/>
</filter>
</defs>
</svg>
