<svg width="66" height="64" viewBox="0 0 66 64" fill="none" xmlns="http://www.w3.org/2000/svg">
<g filter="url(#filter0_d_44_35502)">
<ellipse cx="33" cy="31" rx="30" ry="29" fill="white"/>
<path d="M62.5 31C62.5 46.7243 49.3085 59.5 33 59.5C16.6915 59.5 3.5 46.7243 3.5 31C3.5 15.2757 16.6915 2.5 33 2.5C49.3085 2.5 62.5 15.2757 62.5 31Z" stroke="#CFCFD1"/>
</g>
<path d="M32.6667 34.1667C34.5997 34.1667 36.1667 32.5997 36.1667 30.6667C36.1667 28.7337 34.5997 27.1667 32.6667 27.1667C30.7337 27.1667 29.1667 28.7337 29.1667 30.6667C29.1667 32.5997 30.7337 34.1667 32.6667 34.1667Z" fill="#1C6DF4"/>
<path d="M33.8333 21.4138V19H31.5V21.4138C29.4469 21.6756 27.5388 22.6117 26.0752 24.0752C24.6117 25.5388 23.6756 27.4469 23.4138 29.5H21V31.8333H23.4138C23.6754 33.8865 24.6114 35.7948 26.075 37.2583C27.5386 38.7219 29.4468 39.6579 31.5 39.9195V42.3333H33.8333V39.9195C35.8865 39.6579 37.7948 38.7219 39.2583 37.2583C40.7219 35.7948 41.6579 33.8865 41.9195 31.8333H44.3333V29.5H41.9195C41.6578 27.4469 40.7216 25.5388 39.2581 24.0752C37.7946 22.6117 35.8865 21.6756 33.8333 21.4138ZM32.6667 37.6667C28.8062 37.6667 25.6667 34.5272 25.6667 30.6667C25.6667 26.8062 28.8062 23.6667 32.6667 23.6667C36.5272 23.6667 39.6667 26.8062 39.6667 30.6667C39.6667 34.5272 36.5272 37.6667 32.6667 37.6667Z" fill="#1C6DF4"/>
<defs>
<filter id="filter0_d_44_35502" x="0" y="0" width="66" height="64" filterUnits="userSpaceOnUse" color-interpolation-filters="sRGB">
<feFlood flood-opacity="0" result="BackgroundImageFix"/>
<feColorMatrix in="SourceAlpha" type="matrix" values="0 0 0 0 0 0 0 0 0 0 0 0 0 0 0 0 0 0 127 0" result="hardAlpha"/>
<feOffset dy="1"/>
<feGaussianBlur stdDeviation="1.5"/>
<feColorMatrix type="matrix" values="0 0 0 0 0 0 0 0 0 0 0 0 0 0 0 0 0 0 0.2 0"/>
<feBlend mode="normal" in2="BackgroundImageFix" result="effect1_dropShadow_44_35502"/>
<feBlend mode="normal" in="SourceGraphic" in2="effect1_dropShadow_44_35502" result="shape"/>
</filter>
</defs>
</svg>
