<svg width="80" height="44" viewBox="0 0 80 44" fill="none" xmlns="http://www.w3.org/2000/svg">
<g filter="url(#filter0_d_44_35476)">
<path d="M6 20C6 11.1634 13.1634 4 22 4H59C67.8366 4 75 11.1634 75 20C75 28.8366 67.8366 36 59 36H22C13.1634 36 6 28.8366 6 20Z" fill="white"/>
</g>
<path d="M36.968 20.52V24H35.864V15.408H38.792C39.536 15.408 40.168 15.656 40.688 16.152C41.216 16.648 41.48 17.252 41.48 17.964C41.48 18.692 41.216 19.3 40.688 19.788C40.176 20.276 39.544 20.52 38.792 20.52H36.968ZM36.968 16.464V19.464H38.816C39.256 19.464 39.62 19.316 39.908 19.02C40.204 18.724 40.352 18.372 40.352 17.964C40.352 17.564 40.204 17.216 39.908 16.92C39.62 16.616 39.256 16.464 38.816 16.464H36.968ZM43.0151 22.2C43.0151 22.488 43.1351 22.728 43.3751 22.92C43.6231 23.112 43.9111 23.208 44.2391 23.208C44.7031 23.208 45.1151 23.036 45.4751 22.692C45.8431 22.348 46.0271 21.944 46.0271 21.48C45.6831 21.208 45.2031 21.072 44.5871 21.072C44.1391 21.072 43.7631 21.18 43.4591 21.396C43.1631 21.612 43.0151 21.88 43.0151 22.2ZM44.4431 17.928C45.2591 17.928 45.9031 18.148 46.3751 18.588C46.8471 19.02 47.0831 19.616 47.0831 20.376V24H46.0271V23.184H45.9791C45.5231 23.856 44.9151 24.192 44.1551 24.192C43.5071 24.192 42.9631 24 42.5231 23.616C42.0911 23.232 41.8751 22.752 41.8751 22.176C41.8751 21.568 42.1031 21.084 42.5591 20.724C43.0231 20.364 43.6391 20.184 44.4071 20.184C45.0631 20.184 45.6031 20.304 46.0271 20.544V20.292C46.0271 19.908 45.8751 19.584 45.5711 19.32C45.2671 19.048 44.9111 18.912 44.5031 18.912C43.8871 18.912 43.3991 19.172 43.0391 19.692L42.0671 19.08C42.6031 18.312 43.3951 17.928 44.4431 17.928ZM49.4323 24H48.3283V18.12H49.3843V19.08H49.4323C49.5443 18.768 49.7723 18.504 50.1163 18.288C50.4683 18.064 50.8123 17.952 51.1483 17.952C51.4683 17.952 51.7403 18 51.9643 18.096L51.6283 19.164C51.4923 19.108 51.2763 19.08 50.9803 19.08C50.5643 19.08 50.2003 19.248 49.8883 19.584C49.5843 19.92 49.4323 20.312 49.4323 20.76V24ZM57.9182 24H56.5862L54.7502 21.228L53.8502 22.116V24H52.7462V15.408H53.8502V20.7L56.3942 18.12H57.8102V18.168L55.5182 20.448L57.9182 23.952V24ZM62.9298 22.368C62.9298 22.88 62.7058 23.312 62.2578 23.664C61.8098 24.016 61.2458 24.192 60.5658 24.192C59.9738 24.192 59.4538 24.04 59.0058 23.736C58.5578 23.424 58.2378 23.016 58.0458 22.512L59.0298 22.092C59.1738 22.444 59.3818 22.72 59.6538 22.92C59.9338 23.112 60.2378 23.208 60.5658 23.208C60.9178 23.208 61.2098 23.132 61.4418 22.98C61.6818 22.828 61.8018 22.648 61.8018 22.44C61.8018 22.064 61.5138 21.788 60.9378 21.612L59.9298 21.36C58.7858 21.072 58.2138 20.52 58.2138 19.704C58.2138 19.168 58.4298 18.74 58.8618 18.42C59.3018 18.092 59.8618 17.928 60.5418 17.928C61.0618 17.928 61.5298 18.052 61.9458 18.3C62.3698 18.548 62.6658 18.88 62.8338 19.296L61.8498 19.704C61.7378 19.456 61.5538 19.264 61.2978 19.128C61.0498 18.984 60.7698 18.912 60.4578 18.912C60.1698 18.912 59.9098 18.984 59.6778 19.128C59.4538 19.272 59.3418 19.448 59.3418 19.656C59.3418 19.992 59.6578 20.232 60.2898 20.376L61.1778 20.604C62.3458 20.892 62.9298 21.48 62.9298 22.368Z" fill="#3B4043"/>
<path d="M29.8375 24.1074L27.1803 20.2892H28.1848C28.3303 20.2888 28.4728 20.2431 28.5964 20.1573C28.72 20.0714 28.8199 19.9487 28.8848 19.8029C28.9483 19.6568 28.9741 19.4937 28.9592 19.3321C28.9443 19.1705 28.8893 19.0167 28.8005 18.8882L23.6157 11.3389C23.543 11.2334 23.4498 11.1481 23.343 11.0893C23.2363 11.0305 23.1189 11 23 11C22.8811 11 22.7637 11.0305 22.657 11.0893C22.5502 11.1481 22.457 11.2334 22.3843 11.3389L17.1995 18.8882C17.1107 19.0167 17.0557 19.1705 17.0408 19.3321C17.0259 19.4937 17.0517 19.6568 17.1152 19.8029C17.1801 19.9487 17.28 20.0714 17.4036 20.1573C17.5272 20.2431 17.6697 20.2888 17.8152 20.2892H18.8197L16.1625 24.1074C16.0738 24.2374 16.019 24.3923 16.0041 24.5551C15.9892 24.7178 16.0149 24.8819 16.0782 25.0293C16.1426 25.1757 16.2423 25.2988 16.366 25.3848C16.4898 25.4708 16.6326 25.5161 16.7782 25.5157H22.2223V28.1289C22.2223 28.3599 22.3042 28.5815 22.4501 28.7449C22.5959 28.9082 22.7937 29 23 29C23.2063 29 23.4041 28.9082 23.5499 28.7449C23.6958 28.5815 23.7777 28.3599 23.7777 28.1289V25.5157H29.2218C29.3674 25.5161 29.5102 25.4708 29.634 25.3848C29.7577 25.2988 29.8574 25.1757 29.9218 25.0293C29.9851 24.8819 30.0108 24.7178 29.9959 24.5551C29.981 24.3923 29.9262 24.2374 29.8375 24.1074ZM18.366 23.7735L21.0233 19.9553C21.112 19.8253 21.1668 19.6704 21.1817 19.5077C21.1965 19.345 21.1709 19.1808 21.1075 19.0334C21.0432 18.8871 20.9435 18.7639 20.8198 18.6779C20.696 18.5919 20.5532 18.5466 20.4076 18.5471H19.3965L23 13.2988L26.6035 18.5471H25.5924C25.4468 18.5466 25.304 18.5919 25.1802 18.6779C25.0565 18.7639 24.9568 18.8871 24.8925 19.0334C24.8291 19.1808 24.8035 19.345 24.8183 19.5077C24.8332 19.6704 24.888 19.8253 24.9767 19.9553L27.634 23.7735H18.366Z" fill="#3B4043"/>
<defs>
<filter id="filter0_d_44_35476" x="0" y="0" width="81" height="44" filterUnits="userSpaceOnUse" color-interpolation-filters="sRGB">
<feFlood flood-opacity="0" result="BackgroundImageFix"/>
<feColorMatrix in="SourceAlpha" type="matrix" values="0 0 0 0 0 0 0 0 0 0 0 0 0 0 0 0 0 0 127 0" result="hardAlpha"/>
<feOffset dy="2"/>
<feGaussianBlur stdDeviation="3"/>
<feComposite in2="hardAlpha" operator="out"/>
<feColorMatrix type="matrix" values="0 0 0 0 0 0 0 0 0 0 0 0 0 0 0 0 0 0 0.1 0"/>
<feBlend mode="normal" in2="BackgroundImageFix" result="effect1_dropShadow_44_35476"/>
<feBlend mode="normal" in="SourceGraphic" in2="effect1_dropShadow_44_35476" result="shape"/>
</filter>
</defs>
</svg>
