<svg width="120" height="44" viewBox="0 0 120 44" fill="none" xmlns="http://www.w3.org/2000/svg">
<g filter="url(#filter0_d_44_35462)">
<path d="M6 20C6 11.1634 13.1634 4 22 4H98C106.837 4 114 11.1634 114 20V20C114 28.8366 106.837 36 98 36H22C13.1634 36 6 28.8366 6 20V20Z" fill="white"/>
</g>
<path d="M44.8063 24H43.6303L42.0463 20.262H39.7123V24H38.6023V15.324H41.9623C42.5863 15.324 43.1083 15.42 43.5283 15.612C43.9483 15.8 44.2623 16.072 44.4703 16.428C44.6783 16.78 44.7823 17.202 44.7823 17.694C44.7823 18.166 44.6983 18.558 44.5303 18.87C44.3663 19.182 44.1563 19.434 43.9003 19.626C43.6443 19.814 43.3783 19.96 43.1023 20.064L44.8063 24ZM41.6023 19.344C42.2543 19.344 42.7583 19.212 43.1143 18.948C43.4703 18.68 43.6483 18.284 43.6483 17.76C43.6483 17.248 43.4883 16.866 43.1683 16.614C42.8523 16.358 42.4183 16.23 41.8663 16.23H39.7123V19.344H41.6023ZM47.0882 21.156C47.0882 21.548 47.1522 21.904 47.2802 22.224C47.4122 22.54 47.6102 22.792 47.8742 22.98C48.1422 23.168 48.4762 23.262 48.8762 23.262C49.2722 23.262 49.6122 23.17 49.8962 22.986C50.1842 22.802 50.3682 22.536 50.4482 22.188H51.4982C51.4222 22.608 51.2542 22.962 50.9942 23.25C50.7342 23.538 50.4202 23.756 50.0522 23.904C49.6842 24.048 49.3002 24.12 48.9002 24.12C48.3202 24.12 47.8102 23.994 47.3702 23.742C46.9302 23.49 46.5862 23.128 46.3382 22.656C46.0902 22.184 45.9662 21.618 45.9662 20.958C45.9662 20.306 46.0782 19.734 46.3022 19.242C46.5262 18.75 46.8502 18.366 47.2742 18.09C47.7022 17.814 48.2162 17.676 48.8162 17.676C49.4002 17.676 49.8942 17.802 50.2982 18.054C50.7022 18.306 51.0082 18.662 51.2162 19.122C51.4282 19.578 51.5342 20.12 51.5342 20.748V21.156H47.0882ZM47.0942 20.406H50.4662C50.4662 20.05 50.4062 19.73 50.2862 19.446C50.1662 19.158 49.9822 18.932 49.7342 18.768C49.4902 18.6 49.1822 18.516 48.8102 18.516C48.4222 18.516 48.1002 18.61 47.8442 18.798C47.5922 18.982 47.4022 19.22 47.2742 19.512C47.1502 19.8 47.0902 20.098 47.0942 20.406ZM55.2248 24.12C54.7928 24.12 54.3908 24.054 54.0188 23.922C53.6508 23.786 53.3448 23.576 53.1008 23.292C52.8568 23.004 52.7028 22.638 52.6388 22.194H53.6468C53.7028 22.438 53.8028 22.642 53.9468 22.806C54.0948 22.966 54.2788 23.088 54.4988 23.172C54.7188 23.252 54.9588 23.292 55.2188 23.292C55.6348 23.292 55.9708 23.214 56.2268 23.058C56.4828 22.902 56.6108 22.662 56.6108 22.338C56.6108 22.11 56.5428 21.928 56.4068 21.792C56.2748 21.652 56.0688 21.55 55.7888 21.486L54.5048 21.168C54.0048 21.048 53.6048 20.86 53.3048 20.604C53.0048 20.348 52.8548 19.99 52.8548 19.53C52.8508 19.166 52.9368 18.846 53.1128 18.57C53.2888 18.294 53.5528 18.076 53.9048 17.916C54.2568 17.756 54.6948 17.676 55.2188 17.676C55.8908 17.676 56.4328 17.828 56.8448 18.132C57.2608 18.432 57.4768 18.874 57.4928 19.458H56.5148C56.4748 19.162 56.3408 18.928 56.1128 18.756C55.8888 18.58 55.5868 18.492 55.2068 18.492C54.8108 18.492 54.4888 18.572 54.2408 18.732C53.9928 18.888 53.8688 19.132 53.8688 19.464C53.8688 19.684 53.9568 19.858 54.1328 19.986C54.3088 20.11 54.5688 20.214 54.9128 20.298L56.1548 20.61C56.4428 20.686 56.6788 20.786 56.8628 20.91C57.0508 21.034 57.1988 21.172 57.3068 21.324C57.4188 21.476 57.4968 21.636 57.5408 21.804C57.5888 21.968 57.6128 22.126 57.6128 22.278C57.6128 22.658 57.5168 22.986 57.3248 23.262C57.1368 23.534 56.8648 23.746 56.5088 23.898C56.1568 24.046 55.7288 24.12 55.2248 24.12ZM62.1747 18.606H60.7767V22.464C60.7767 22.684 60.7987 22.846 60.8427 22.95C60.8907 23.05 60.9687 23.114 61.0767 23.142C61.1887 23.17 61.3407 23.184 61.5327 23.184H62.2107V23.928C62.1347 23.956 62.0187 23.98 61.8627 24C61.7107 24.02 61.5207 24.03 61.2927 24.03C60.8647 24.03 60.5327 23.972 60.2967 23.856C60.0607 23.74 59.8947 23.568 59.7987 23.34C59.7067 23.112 59.6607 22.832 59.6607 22.5V18.606H58.6527V17.796H59.6907L59.9607 15.99H60.7767V17.79H62.1747V18.606ZM65.4497 24.12C65.0497 24.12 64.6957 24.05 64.3877 23.91C64.0797 23.766 63.8377 23.56 63.6617 23.292C63.4897 23.024 63.4037 22.7 63.4037 22.32C63.4037 21.632 63.6437 21.12 64.1237 20.784C64.6037 20.448 65.3737 20.268 66.4337 20.244L67.5437 20.214V19.728C67.5437 19.348 67.4297 19.048 67.2017 18.828C66.9737 18.604 66.6197 18.492 66.1397 18.492C65.7837 18.496 65.4697 18.58 65.1977 18.744C64.9297 18.908 64.7557 19.176 64.6757 19.548H63.6977C63.7217 19.144 63.8357 18.804 64.0397 18.528C64.2437 18.248 64.5277 18.036 64.8917 17.892C65.2597 17.748 65.6937 17.676 66.1937 17.676C66.7337 17.676 67.1817 17.752 67.5377 17.904C67.8977 18.056 68.1657 18.28 68.3417 18.576C68.5217 18.872 68.6117 19.236 68.6117 19.668V24H67.6637L67.5857 22.836C67.3457 23.32 67.0397 23.656 66.6677 23.844C66.2997 24.028 65.8937 24.12 65.4497 24.12ZM65.7857 23.322C65.9937 23.322 66.1997 23.284 66.4037 23.208C66.6117 23.132 66.8017 23.03 66.9737 22.902C67.1457 22.77 67.2817 22.624 67.3817 22.464C67.4857 22.3 67.5397 22.132 67.5437 21.96V20.898L66.6197 20.916C66.1477 20.924 65.7517 20.972 65.4317 21.06C65.1157 21.148 64.8777 21.286 64.7177 21.474C64.5617 21.662 64.4837 21.908 64.4837 22.212C64.4837 22.56 64.6037 22.832 64.8437 23.028C65.0877 23.224 65.4017 23.322 65.7857 23.322ZM72.6934 24.12C72.3694 24.116 72.0634 24.07 71.7754 23.982C71.4914 23.89 71.2394 23.756 71.0194 23.58C70.7994 23.404 70.6254 23.186 70.4974 22.926C70.3734 22.662 70.3114 22.356 70.3114 22.008V17.796H71.4214V21.894C71.4214 22.298 71.5454 22.626 71.7934 22.878C72.0454 23.13 72.4234 23.256 72.9274 23.256C73.3834 23.256 73.7494 23.138 74.0254 22.902C74.3054 22.662 74.4454 22.306 74.4454 21.834V17.796H75.5494V24H74.6674L74.5534 22.812C74.4774 23.124 74.3474 23.376 74.1634 23.568C73.9834 23.76 73.7654 23.902 73.5094 23.994C73.2574 24.082 72.9854 24.124 72.6934 24.12ZM77.3509 24V17.796H78.4069V18.99C78.5109 18.694 78.6569 18.45 78.8449 18.258C79.0329 18.062 79.2469 17.916 79.4869 17.82C79.7309 17.724 79.9829 17.676 80.2429 17.676C80.3349 17.676 80.4249 17.682 80.5129 17.694C80.6009 17.706 80.6689 17.726 80.7169 17.754V18.828C80.6569 18.8 80.5789 18.782 80.4829 18.774C80.3909 18.762 80.3129 18.756 80.2489 18.756C80.0009 18.74 79.7689 18.756 79.5529 18.804C79.3369 18.848 79.1469 18.926 78.9829 19.038C78.8189 19.15 78.6889 19.298 78.5929 19.482C78.5009 19.662 78.4549 19.882 78.4549 20.142V24H77.3509ZM83.5669 24.12C83.1669 24.12 82.8129 24.05 82.5049 23.91C82.1969 23.766 81.9549 23.56 81.7789 23.292C81.6069 23.024 81.5209 22.7 81.5209 22.32C81.5209 21.632 81.7609 21.12 82.2409 20.784C82.7209 20.448 83.4909 20.268 84.5509 20.244L85.6609 20.214V19.728C85.6609 19.348 85.5469 19.048 85.3189 18.828C85.0909 18.604 84.7369 18.492 84.2569 18.492C83.9009 18.496 83.5869 18.58 83.3149 18.744C83.0469 18.908 82.8729 19.176 82.7929 19.548H81.8149C81.8389 19.144 81.9529 18.804 82.1569 18.528C82.3609 18.248 82.6449 18.036 83.0089 17.892C83.3769 17.748 83.8109 17.676 84.3109 17.676C84.8509 17.676 85.2989 17.752 85.6549 17.904C86.0149 18.056 86.2829 18.28 86.4589 18.576C86.6389 18.872 86.7289 19.236 86.7289 19.668V24H85.7809L85.7029 22.836C85.4629 23.32 85.1569 23.656 84.7849 23.844C84.4169 24.028 84.0109 24.12 83.5669 24.12ZM83.9029 23.322C84.1109 23.322 84.3169 23.284 84.5209 23.208C84.7289 23.132 84.9189 23.03 85.0909 22.902C85.2629 22.77 85.3989 22.624 85.4989 22.464C85.6029 22.3 85.6569 22.132 85.6609 21.96V20.898L84.7369 20.916C84.2649 20.924 83.8689 20.972 83.5489 21.06C83.2329 21.148 82.9949 21.286 82.8349 21.474C82.6789 21.662 82.6009 21.908 82.6009 22.212C82.6009 22.56 82.7209 22.832 82.9609 23.028C83.2049 23.224 83.5189 23.322 83.9029 23.322ZM88.6243 24V17.796H89.6983V18.696C89.7983 18.524 89.9363 18.362 90.1123 18.21C90.2923 18.058 90.5083 17.936 90.7603 17.844C91.0163 17.752 91.3103 17.706 91.6423 17.706C92.0343 17.706 92.3943 17.784 92.7223 17.94C93.0543 18.096 93.3183 18.34 93.5143 18.672C93.7143 19 93.8143 19.424 93.8143 19.944V24H92.7043V20.052C92.7043 19.568 92.5763 19.21 92.3203 18.978C92.0683 18.742 91.7403 18.624 91.3363 18.624C91.0563 18.624 90.7943 18.67 90.5503 18.762C90.3063 18.85 90.1083 18.986 89.9563 19.17C89.8043 19.35 89.7283 19.578 89.7283 19.854V24H88.6243ZM98.4091 18.606H97.0111V22.464C97.0111 22.684 97.0331 22.846 97.0771 22.95C97.1251 23.05 97.2031 23.114 97.3111 23.142C97.4231 23.17 97.5751 23.184 97.7671 23.184H98.4451V23.928C98.3691 23.956 98.2531 23.98 98.0971 24C97.9451 24.02 97.7551 24.03 97.5271 24.03C97.0991 24.03 96.7671 23.972 96.5311 23.856C96.2951 23.74 96.1291 23.568 96.0331 23.34C95.9411 23.112 95.8951 22.832 95.8951 22.5V18.606H94.8871V17.796H95.9251L96.1951 15.99H97.0111V17.79H98.4091V18.606ZM102.182 24.12C101.75 24.12 101.348 24.054 100.976 23.922C100.608 23.786 100.302 23.576 100.058 23.292C99.8138 23.004 99.6598 22.638 99.5958 22.194H100.604C100.66 22.438 100.76 22.642 100.904 22.806C101.052 22.966 101.236 23.088 101.456 23.172C101.676 23.252 101.916 23.292 102.176 23.292C102.592 23.292 102.928 23.214 103.184 23.058C103.44 22.902 103.568 22.662 103.568 22.338C103.568 22.11 103.5 21.928 103.364 21.792C103.232 21.652 103.026 21.55 102.746 21.486L101.462 21.168C100.962 21.048 100.562 20.86 100.262 20.604C99.9618 20.348 99.8118 19.99 99.8118 19.53C99.8078 19.166 99.8938 18.846 100.07 18.57C100.246 18.294 100.51 18.076 100.862 17.916C101.214 17.756 101.652 17.676 102.176 17.676C102.848 17.676 103.39 17.828 103.802 18.132C104.218 18.432 104.434 18.874 104.45 19.458H103.472C103.432 19.162 103.298 18.928 103.07 18.756C102.846 18.58 102.544 18.492 102.164 18.492C101.768 18.492 101.446 18.572 101.198 18.732C100.95 18.888 100.826 19.132 100.826 19.464C100.826 19.684 100.914 19.858 101.09 19.986C101.266 20.11 101.526 20.214 101.87 20.298L103.112 20.61C103.4 20.686 103.636 20.786 103.82 20.91C104.008 21.034 104.156 21.172 104.264 21.324C104.376 21.476 104.454 21.636 104.498 21.804C104.546 21.968 104.57 22.126 104.57 22.278C104.57 22.658 104.474 22.986 104.282 23.262C104.094 23.534 103.822 23.746 103.466 23.898C103.114 24.046 102.686 24.12 102.182 24.12Z" fill="#3B4043"/>
<path d="M22.9698 17.4H21.4142V12.5H19.8587V17.4H18.3031V12.5H16.7476V17.4C16.7476 18.884 18.0387 20.088 19.6642 20.179V26.5H21.6087V20.179C23.2342 20.088 24.5254 18.884 24.5254 17.4V12.5H22.9698V17.4ZM26.8587 15.3V20.9H28.8031V26.5H30.7476V12.5C28.6009 12.5 26.8587 14.068 26.8587 15.3Z" fill="#3B4043"/>
<defs>
<filter id="filter0_d_44_35462" x="0" y="0" width="120" height="44" filterUnits="userSpaceOnUse" color-interpolation-filters="sRGB">
<feFlood flood-opacity="0" result="BackgroundImageFix"/>
<feColorMatrix in="SourceAlpha" type="matrix" values="0 0 0 0 0 0 0 0 0 0 0 0 0 0 0 0 0 0 127 0" result="hardAlpha"/>
<feOffset dy="2"/>
<feGaussianBlur stdDeviation="3"/>
<feComposite in2="hardAlpha" operator="out"/>
<feColorMatrix type="matrix" values="0 0 0 0 0 0 0 0 0 0 0 0 0 0 0 0 0 0 0.1 0"/>
<feBlend mode="normal" in2="BackgroundImageFix" result="effect1_dropShadow_44_35462"/>
<feBlend mode="normal" in="SourceGraphic" in2="effect1_dropShadow_44_35462" result="shape"/>
</filter>
</defs>
</svg>
