<svg width="69" height="30" viewBox="0 0 69 30" fill="none" xmlns="http://www.w3.org/2000/svg">
<rect width="69" height="30" rx="15" fill="white"/>
<g clip-path="url(#clip0_44_35595)">
<path d="M18.2187 12.8191C16.5594 12.0342 14.8531 12.071 13.1004 13.0104C11.426 13.9085 10.6902 15.3732 11.0566 17.3034C10.3786 17.7099 9.74487 17.9949 9.22362 18.422C8.36675 19.1229 8.1245 20.174 8.459 21.1182C8.62587 21.5926 8.86737 21.8431 9.42275 21.8416C13.2515 21.8292 17.0802 21.8292 20.9079 21.8247C15.206 17.0754 16.7791 14.1429 18.2187 12.821" fill="#BBBBBC"/>
<path d="M13.5237 17.519C16.1565 17.519 18.2907 15.3847 18.2907 12.752C18.2907 10.1193 16.1565 7.985 13.5237 7.985C10.891 7.985 8.75674 10.1193 8.75674 12.752C8.75674 15.3847 10.891 17.519 13.5237 17.519Z" fill="#F9EC21"/>
<path d="M11.0563 17.3049C10.6899 15.3747 11.4256 13.9074 13.1 13.0111C15.3388 11.8111 17.504 12.0785 19.5909 13.6587C20.7155 12.3894 22.079 11.831 23.6818 12.6672C25.0681 13.3891 25.4979 14.6622 25.3126 16.2219C25.6651 16.2545 25.9846 16.2691 26.3004 16.3175C28.5579 16.6599 29.792 19.4191 28.5283 21.3594C28.3704 21.6016 27.9654 21.8097 27.6766 21.8105C21.5923 21.836 15.5079 21.8229 9.42275 21.8424C8.86738 21.8439 8.62625 21.5941 8.459 21.119C8.12413 20.174 8.36825 19.1236 9.22363 18.4227C9.7445 17.9952 10.379 17.7106 11.0563 17.3049Z" fill="#D0D2D3"/>
</g>
<path d="M39.4746 16.1289V17.0195H33.3105V16.3809L37.1309 10.4688H38.0156L37.0664 12.1797L34.541 16.1289H39.4746ZM38.2852 10.4688V19H37.2012V10.4688H38.2852ZM46.2246 16.1289V17.0195H40.0605V16.3809L43.8809 10.4688H44.7656L43.8164 12.1797L41.291 16.1289H46.2246ZM45.0352 10.4688V19H43.9512V10.4688H45.0352ZM47.3438 18.4258C47.3438 18.2422 47.4004 18.0879 47.5137 17.9629C47.6309 17.834 47.7988 17.7695 48.0176 17.7695C48.2363 17.7695 48.4023 17.834 48.5156 17.9629C48.6328 18.0879 48.6914 18.2422 48.6914 18.4258C48.6914 18.6055 48.6328 18.7578 48.5156 18.8828C48.4023 19.0078 48.2363 19.0703 48.0176 19.0703C47.7988 19.0703 47.6309 19.0078 47.5137 18.8828C47.4004 18.7578 47.3438 18.6055 47.3438 18.4258ZM54.5332 10.457H54.627V11.377H54.5332C53.959 11.377 53.4785 11.4707 53.0918 11.6582C52.7051 11.8418 52.3984 12.0898 52.1719 12.4023C51.9453 12.7109 51.7812 13.0586 51.6797 13.4453C51.582 13.832 51.5332 14.2246 51.5332 14.623V15.877C51.5332 16.2559 51.5781 16.5918 51.668 16.8848C51.7578 17.1738 51.8809 17.418 52.0371 17.6172C52.1934 17.8164 52.3691 17.9668 52.5645 18.0684C52.7637 18.1699 52.9707 18.2207 53.1855 18.2207C53.4355 18.2207 53.6582 18.1738 53.8535 18.0801C54.0488 17.9824 54.2129 17.8477 54.3457 17.6758C54.4824 17.5 54.5859 17.293 54.6562 17.0547C54.7266 16.8164 54.7617 16.5547 54.7617 16.2695C54.7617 16.0156 54.7305 15.7715 54.668 15.5371C54.6055 15.2988 54.5098 15.0879 54.3809 14.9043C54.252 14.7168 54.0898 14.5703 53.8945 14.4648C53.7031 14.3555 53.4746 14.3008 53.209 14.3008C52.9082 14.3008 52.627 14.375 52.3652 14.5234C52.1074 14.668 51.8945 14.8594 51.7266 15.0977C51.5625 15.332 51.4688 15.5879 51.4453 15.8652L50.8711 15.8594C50.9258 15.4219 51.0273 15.0488 51.1758 14.7402C51.3281 14.4277 51.5156 14.1738 51.7383 13.9785C51.9648 13.7793 52.2168 13.6348 52.4941 13.5449C52.7754 13.4512 53.0723 13.4043 53.3848 13.4043C53.8105 13.4043 54.1777 13.4844 54.4863 13.6445C54.7949 13.8047 55.0488 14.0195 55.248 14.2891C55.4473 14.5547 55.5938 14.8555 55.6875 15.1914C55.7852 15.5234 55.834 15.8652 55.834 16.2168C55.834 16.6191 55.7773 16.9961 55.6641 17.3477C55.5508 17.6992 55.3809 18.0078 55.1543 18.2734C54.9316 18.5391 54.6562 18.7461 54.3281 18.8945C54 19.043 53.6191 19.1172 53.1855 19.1172C52.7246 19.1172 52.3223 19.0234 51.9785 18.8359C51.6348 18.6445 51.3496 18.3906 51.123 18.0742C50.8965 17.7578 50.7266 17.4062 50.6133 17.0195C50.5 16.6328 50.4434 16.2402 50.4434 15.8418V15.332C50.4434 14.7305 50.5039 14.1406 50.625 13.5625C50.7461 12.9844 50.9551 12.4609 51.252 11.9922C51.5527 11.5234 51.9688 11.1504 52.5 10.873C53.0312 10.5957 53.709 10.457 54.5332 10.457ZM57.1816 11.8691C57.1816 11.5918 57.25 11.3379 57.3867 11.1074C57.5234 10.877 57.7051 10.6934 57.9316 10.5566C58.1582 10.416 58.4062 10.3457 58.6758 10.3457C58.9453 10.3457 59.1914 10.416 59.4141 10.5566C59.6367 10.6934 59.8145 10.877 59.9473 11.1074C60.0801 11.3379 60.1465 11.5918 60.1465 11.8691C60.1465 12.1465 60.0801 12.4004 59.9473 12.6309C59.8145 12.8574 59.6367 13.0391 59.4141 13.1758C59.1914 13.3086 58.9453 13.375 58.6758 13.375C58.4062 13.375 58.1582 13.3086 57.9316 13.1758C57.7051 13.0391 57.5234 12.8574 57.3867 12.6309C57.25 12.4004 57.1816 12.1465 57.1816 11.8691ZM57.9082 11.8691C57.9082 12.084 57.9824 12.2637 58.1309 12.4082C58.2832 12.5527 58.4648 12.625 58.6758 12.625C58.8867 12.625 59.0625 12.5527 59.2031 12.4082C59.3477 12.2637 59.4199 12.084 59.4199 11.8691C59.4199 11.6504 59.3477 11.4668 59.2031 11.3184C59.0625 11.1699 58.8867 11.0957 58.6758 11.0957C58.4648 11.0957 58.2832 11.1699 58.1309 11.3184C57.9824 11.4668 57.9082 11.6504 57.9082 11.8691Z" fill="#707070"/>
<defs>
<clipPath id="clip0_44_35595">
<rect width="24" height="24" fill="white" transform="translate(5 2)"/>
</clipPath>
</defs>
</svg>
